<svg width="17" height="17" viewBox="0 0 17 17" fill="none" xmlns="http://www.w3.org/2000/svg">
<path d="M9.83463 1.91667C9.83463 1.58515 9.70294 1.26721 9.46852 1.03279C9.2341 0.798368 8.91616 0.666672 8.58464 0.666672C8.25311 0.666672 7.93517 0.798368 7.70075 1.03279C7.46633 1.26721 7.33464 1.58515 7.33464 1.91667V7.33334H1.91797C1.58645 7.33334 1.26851 7.46503 1.03409 7.69945C0.799665 7.93388 0.667969 8.25182 0.667969 8.58334C0.667969 8.91486 0.799665 9.2328 1.03409 9.46722C1.26851 9.70164 1.58645 9.83334 1.91797 9.83334H7.33464V15.25C7.33464 15.5815 7.46633 15.8995 7.70075 16.1339C7.93517 16.3683 8.25311 16.5 8.58464 16.5C8.91616 16.5 9.2341 16.3683 9.46852 16.1339C9.70294 15.8995 9.83463 15.5815 9.83463 15.25V9.83334H15.2513C15.5828 9.83334 15.9008 9.70164 16.1352 9.46722C16.3696 9.2328 16.5013 8.91486 16.5013 8.58334C16.5013 8.25182 16.3696 7.93388 16.1352 7.69945C15.9008 7.46503 15.5828 7.33334 15.2513 7.33334H9.83463V1.91667Z" fill="#B3B3B3"/>
</svg>
