<svg width="474" height="435" viewBox="0 0 474 435" fill="none" xmlns="http://www.w3.org/2000/svg">
<g clip-path="url(#clip0_88_136)">
<path d="M70.7583 70.9988H69.5447V135.93H70.7583V70.9988Z" fill="#EED581" fill-opacity="0.31"/>
<path d="M70.7583 155.258H69.5447V212.39H70.7583V155.258Z" fill="#EED581" fill-opacity="0.31"/>
<path d="M161.783 221.493H67.7244V222.706H161.783V221.493Z" fill="#EED581" fill-opacity="0.31"/>
<path d="M181.201 298.56H38.5964V299.774H181.201V298.56Z" fill="#EED581" fill-opacity="0.31"/>
<path d="M300.14 29.7346H298.926V91.0243H300.14V29.7346Z" fill="#EED581" fill-opacity="0.31"/>
<path d="M289.824 100.734H200.599V101.947H289.824V100.734Z" fill="#EED581" fill-opacity="0.31"/>
<path d="M191.517 110.443H190.304V192.365H191.517V110.443Z" fill="#EED581" fill-opacity="0.31"/>
<path d="M70.1516 155.955C68.1112 155.955 66.1167 155.35 64.4202 154.216C62.7238 153.083 61.4015 151.472 60.6207 149.587C59.8399 147.702 59.6356 145.627 60.0337 143.626C60.4317 141.625 61.4142 139.787 62.857 138.344C64.2997 136.902 66.1379 135.919 68.139 135.521C70.1401 135.123 72.2143 135.327 74.0994 136.108C75.9844 136.889 77.5955 138.211 78.7291 139.908C79.8626 141.604 80.4677 143.599 80.4677 145.639C80.4646 148.374 79.3768 150.996 77.4428 152.93C75.5088 154.864 72.8866 155.952 70.1516 155.955ZM70.1516 136.536C68.3513 136.536 66.5914 137.07 65.0945 138.07C63.5976 139.071 62.4309 140.492 61.742 142.156C61.053 143.819 60.8728 145.649 61.224 147.415C61.5752 149.18 62.4422 150.802 63.7152 152.075C64.9881 153.348 66.6101 154.215 68.3758 154.566C70.1415 154.918 71.9717 154.737 73.6349 154.048C75.2982 153.359 76.7198 152.193 77.72 150.696C78.7202 149.199 79.254 147.439 79.254 145.639C79.2513 143.226 78.2915 140.912 76.585 139.205C74.8785 137.499 72.5649 136.539 70.1516 136.536Z" fill="#EED581" fill-opacity="0.31"/>
<path d="M28.8872 309.483C26.8468 309.483 24.8523 308.878 23.1558 307.744C21.4594 306.611 20.1371 305 19.3563 303.114C18.5755 301.229 18.3712 299.155 18.7693 297.154C19.1673 295.153 20.1498 293.315 21.5926 291.872C23.0353 290.429 24.8734 289.447 26.8746 289.049C28.8757 288.651 30.9499 288.855 32.835 289.636C34.72 290.417 36.3311 291.739 37.4647 293.435C38.5982 295.132 39.2033 297.126 39.2033 299.167C39.2002 301.902 38.1124 304.524 36.1784 306.458C34.2444 308.392 31.6222 309.48 28.8872 309.483ZM28.8872 290.064C27.0869 290.064 25.327 290.598 23.8301 291.598C22.3332 292.598 21.1665 294.02 20.4776 295.683C19.7886 297.347 19.6084 299.177 19.9596 300.943C20.3108 302.708 21.1777 304.33 22.4507 305.603C23.7237 306.876 25.3457 307.743 27.1114 308.094C28.8771 308.445 30.7072 308.265 32.3705 307.576C34.0338 306.887 35.4554 305.721 36.4556 304.224C37.4558 302.727 37.9896 300.967 37.9896 299.167C37.9869 296.753 37.027 294.44 35.3206 292.733C33.6141 291.027 31.3005 290.067 28.8872 290.064Z" fill="#EED581" fill-opacity="0.31"/>
<path d="M70.7583 231.809C76.1206 231.809 80.4676 227.462 80.4676 222.1C80.4676 216.737 76.1206 212.39 70.7583 212.39C65.3961 212.39 61.0491 216.737 61.0491 222.1C61.0491 227.462 65.3961 231.809 70.7583 231.809Z" fill="#EED581"/>
<path d="M422.113 145.032H321.379V146.246H422.113V145.032Z" fill="#EED581" fill-opacity="0.31"/>
<path d="M312.277 155.258H311.063V212.39H312.277V155.258Z" fill="#EED581" fill-opacity="0.31"/>
<path d="M301.354 221.493H220.645V222.706H301.354V221.493Z" fill="#EED581" fill-opacity="0.31"/>
<path d="M423.142 402.537H362.545V403.619H423.142V402.537Z" fill="#EED581" fill-opacity="0.31"/>
<path d="M352.806 308.396H351.724V391.716H352.806V308.396Z" fill="#EED581" fill-opacity="0.31"/>
<path d="M343.225 298.56H200.62V299.774H343.225V298.56Z" fill="#EED581" fill-opacity="0.31"/>
<path d="M191.518 251.834H190.304V289.458H191.518V251.834Z" fill="#EED581" fill-opacity="0.31"/>
<path d="M311.669 155.348C317.032 155.348 321.379 151.001 321.379 145.639C321.379 140.277 317.032 135.93 311.669 135.93C306.307 135.93 301.96 140.277 301.96 145.639C301.96 151.001 306.307 155.348 311.669 155.348Z" fill="#EED581"/>
<path d="M299.533 111.05C297.493 111.05 295.498 110.445 293.802 109.311C292.105 108.177 290.783 106.566 290.002 104.681C289.222 102.796 289.017 100.722 289.415 98.721C289.813 96.7198 290.796 94.8817 292.239 93.4389C293.681 91.9962 295.519 91.0137 297.521 90.6156C299.522 90.2176 301.596 90.4219 303.481 91.2027C305.366 91.9835 306.977 93.3057 308.111 95.0022C309.244 96.6987 309.849 98.6932 309.849 100.734C309.846 103.469 308.758 106.091 306.824 108.025C304.89 109.959 302.268 111.047 299.533 111.05ZM299.533 91.6311C297.733 91.6311 295.973 92.1649 294.476 93.1651C292.979 94.1653 291.813 95.5869 291.124 97.2502C290.435 98.9134 290.254 100.744 290.606 102.509C290.957 104.275 291.824 105.897 293.097 107.17C294.37 108.443 295.992 109.31 297.757 109.661C299.523 110.012 301.353 109.832 303.017 109.143C304.68 108.454 306.101 107.287 307.102 105.791C308.102 104.294 308.636 102.534 308.636 100.734C308.633 98.3202 307.673 96.0065 305.967 94.3001C304.26 92.5936 301.946 91.6338 299.533 91.6311Z" fill="#EED581" fill-opacity="0.31"/>
<path d="M190.911 111.05C188.87 111.05 186.876 110.445 185.179 109.311C183.483 108.177 182.161 106.566 181.38 104.681C180.599 102.796 180.395 100.722 180.793 98.721C181.191 96.7198 182.173 94.8817 183.616 93.4389C185.059 91.9962 186.897 91.0137 188.898 90.6156C190.899 90.2176 192.973 90.4219 194.858 91.2027C196.743 91.9835 198.355 93.3057 199.488 95.0022C200.622 96.6987 201.227 98.6932 201.227 100.734C201.224 103.469 200.136 106.091 198.202 108.025C196.268 109.959 193.646 111.047 190.911 111.05ZM190.911 91.6311C189.11 91.6311 187.35 92.1649 185.854 93.1651C184.357 94.1653 183.19 95.5869 182.501 97.2502C181.812 98.9134 181.632 100.744 181.983 102.509C182.334 104.275 183.201 105.897 184.474 107.17C185.747 108.443 187.369 109.31 189.135 109.661C190.9 110.012 192.731 109.832 194.394 109.143C196.057 108.454 197.479 107.287 198.479 105.791C199.479 104.294 200.013 102.534 200.013 100.734C200.01 98.3202 199.05 96.0065 197.344 94.3001C195.638 92.5936 193.324 91.6338 190.911 91.6311Z" fill="#EED581" fill-opacity="0.31"/>
<path d="M352.934 308.876C358.296 308.876 362.643 304.529 362.643 299.167C362.643 293.805 358.296 289.458 352.934 289.458C347.572 289.458 343.225 293.805 343.225 299.167C343.225 304.529 347.572 308.876 352.934 308.876Z" fill="#EED581"/>
<path d="M190.911 309.483C188.87 309.483 186.876 308.878 185.179 307.744C183.483 306.611 182.161 305 181.38 303.114C180.599 301.229 180.395 299.155 180.793 297.154C181.191 295.153 182.173 293.315 183.616 291.872C185.059 290.429 186.897 289.447 188.898 289.049C190.899 288.651 192.973 288.855 194.858 289.636C196.743 290.417 198.355 291.739 199.488 293.435C200.622 295.132 201.227 297.126 201.227 299.167C201.224 301.902 200.136 304.524 198.202 306.458C196.268 308.392 193.646 309.48 190.911 309.483ZM190.911 290.064C189.11 290.064 187.35 290.598 185.854 291.598C184.357 292.598 183.19 294.02 182.501 295.683C181.812 297.347 181.632 299.177 181.983 300.943C182.334 302.708 183.201 304.33 184.474 305.603C185.747 306.876 187.369 307.743 189.135 308.094C190.9 308.445 192.731 308.265 194.394 307.576C196.057 306.887 197.479 305.721 198.479 304.224C199.479 302.727 200.013 300.967 200.013 299.167C200.01 296.753 199.05 294.44 197.344 292.733C195.638 291.027 193.324 290.067 190.911 290.064Z" fill="#EED581" fill-opacity="0.31"/>
<path d="M311.063 232.415C309.023 232.415 307.028 231.81 305.332 230.677C303.635 229.543 302.313 227.932 301.532 226.047C300.751 224.162 300.547 222.088 300.945 220.087C301.343 218.086 302.326 216.247 303.768 214.805C305.211 213.362 307.049 212.379 309.05 211.981C311.051 211.583 313.126 211.788 315.011 212.568C316.896 213.349 318.507 214.672 319.64 216.368C320.774 218.064 321.379 220.059 321.379 222.099C321.376 224.834 320.288 227.457 318.354 229.391C316.42 231.325 313.798 232.412 311.063 232.415ZM311.063 212.997C309.263 212.997 307.503 213.531 306.006 214.531C304.509 215.531 303.342 216.953 302.653 218.616C301.964 220.279 301.784 222.109 302.135 223.875C302.487 225.641 303.354 227.263 304.627 228.536C305.9 229.809 307.521 230.676 309.287 231.027C311.053 231.378 312.883 231.198 314.546 230.509C316.21 229.82 317.631 228.653 318.631 227.156C319.632 225.659 320.165 223.9 320.165 222.099C320.163 219.686 319.203 217.372 317.496 215.666C315.79 213.959 313.476 213 311.063 212.997Z" fill="#EED581" fill-opacity="0.31"/>
<path d="M29.495 383.527C31.8954 383.527 34.2419 382.815 36.2377 381.481C38.2336 380.148 39.7892 378.252 40.7078 376.035C41.6263 373.817 41.8667 371.377 41.3984 369.023C40.9301 366.668 39.7742 364.506 38.0769 362.808C36.3795 361.111 34.217 359.955 31.8627 359.487C29.5085 359.019 27.0682 359.259 24.8505 360.178C22.6329 361.096 20.7374 362.652 19.4038 364.648C18.0702 366.643 17.3584 368.99 17.3584 371.39C17.3678 374.606 18.6495 377.688 20.9235 379.962C23.1976 382.236 26.2791 383.517 29.495 383.527ZM29.495 379.886C28.7749 379.886 28.0709 379.672 27.4722 379.272C26.8734 378.872 26.4068 378.304 26.1312 377.638C25.8556 376.973 25.7835 376.241 25.924 375.535C26.0645 374.828 26.4112 374.18 26.9204 373.67C27.4296 373.161 28.0784 372.814 28.7847 372.674C29.491 372.533 30.2231 372.606 30.8884 372.881C31.5537 373.157 32.1223 373.623 32.5224 374.222C32.9224 374.821 33.136 375.525 33.136 376.245C33.1328 377.21 32.7481 378.134 32.066 378.816C31.3839 379.498 30.4597 379.883 29.495 379.886ZM29.495 362.358C30.9333 362.364 32.3483 362.722 33.6173 363.399C34.8862 364.076 35.9708 365.053 36.777 366.244C36.7186 368.671 31.9223 370.007 29.495 370.007C27.0677 370.007 22.2714 368.671 22.2131 366.244C23.0201 365.054 24.1049 364.078 25.3736 363.401C26.6424 362.724 28.0569 362.366 29.495 362.358Z" fill="#EED581" fill-opacity="0.31"/>
<path d="M70.7584 41.8711C68.358 41.8711 66.0115 42.5829 64.0157 43.9165C62.0198 45.2501 60.4643 47.1455 59.5457 49.3632C58.6271 51.5809 58.3867 54.0211 58.855 56.3754C59.3233 58.7297 60.4792 60.8922 62.1766 62.5895C63.8739 64.2869 66.0364 65.4428 68.3907 65.9111C70.745 66.3794 73.1852 66.139 75.4029 65.2204C77.6205 64.3018 79.516 62.7463 80.8496 60.7504C82.1832 58.7546 82.895 56.4081 82.895 54.0077C82.8856 50.7918 81.6039 47.7102 79.3299 45.4362C77.0559 43.1622 73.9743 41.8805 70.7584 41.8711ZM70.7584 45.5121C71.4785 45.5121 72.1825 45.7256 72.7812 46.1257C73.38 46.5258 73.8467 47.0944 74.1222 47.7597C74.3978 48.425 74.4699 49.1571 74.3294 49.8634C74.1889 50.5696 73.8422 51.2184 73.333 51.7276C72.8238 52.2368 72.175 52.5836 71.4687 52.7241C70.7624 52.8646 70.0304 52.7924 69.3651 52.5169C68.6998 52.2413 68.1311 51.7746 67.731 51.1759C67.331 50.5771 67.1174 49.8732 67.1174 49.153C67.1207 48.1884 67.5053 47.2642 68.1874 46.582C68.8695 45.8999 69.7938 45.5153 70.7584 45.5121ZM70.7584 63.0401C69.3201 63.0335 67.9051 62.6762 66.6361 61.999C65.3672 61.3218 64.2826 60.3453 63.4765 59.1541C63.5348 56.7267 68.3311 55.3906 70.7584 55.3906C73.1857 55.3906 77.982 56.7267 78.0404 59.1541C77.2333 60.3444 76.1485 61.3202 74.8798 61.9973C73.611 62.6744 72.1965 63.0323 70.7584 63.0401Z" fill="#EED581" fill-opacity="0.31"/>
<path d="M352.301 412.349C350.261 412.349 348.266 411.744 346.57 410.61C344.873 409.477 343.551 407.865 342.77 405.98C341.99 404.095 341.785 402.021 342.183 400.02C342.581 398.019 343.564 396.181 345.007 394.738C346.449 393.295 348.288 392.313 350.289 391.915C352.29 391.517 354.364 391.721 356.249 392.502C358.134 393.283 359.745 394.605 360.879 396.301C362.012 397.998 362.617 399.992 362.617 402.033C362.614 404.768 361.526 407.39 359.592 409.324C357.658 411.258 355.036 412.346 352.301 412.349ZM352.301 392.93C350.501 392.93 348.741 393.464 347.244 394.464C345.747 395.464 344.581 396.886 343.892 398.549C343.203 400.212 343.022 402.043 343.374 403.808C343.725 405.574 344.592 407.196 345.865 408.469C347.138 409.742 348.76 410.609 350.525 410.96C352.291 411.311 354.121 411.131 355.785 410.442C357.448 409.753 358.869 408.586 359.87 407.09C360.87 405.593 361.404 403.833 361.404 402.033C361.401 399.619 360.441 397.306 358.735 395.599C357.028 393.893 354.714 392.933 352.301 392.93Z" fill="#EED581" fill-opacity="0.31"/>
<path d="M299.533 0C297.133 0 294.786 0.711802 292.79 2.04539C290.794 3.37897 289.239 5.27445 288.32 7.49212C287.402 9.70979 287.161 12.1501 287.63 14.5043C288.098 16.8586 289.254 19.0211 290.951 20.7185C292.649 22.4158 294.811 23.5717 297.165 24.04C299.52 24.5083 301.96 24.2679 304.178 23.3493C306.395 22.4307 308.291 20.8752 309.624 18.8793C310.958 16.8835 311.67 14.537 311.67 12.1366C311.66 8.92066 310.379 5.83914 308.105 3.56512C305.831 1.29111 302.749 0.00941338 299.533 0ZM299.533 3.64098C300.253 3.64098 300.957 3.85452 301.556 4.25459C302.155 4.65467 302.621 5.22331 302.897 5.88861C303.172 6.55391 303.245 7.28599 303.104 7.99227C302.964 8.69855 302.617 9.34731 302.108 9.85651C301.598 10.3657 300.95 10.7125 300.243 10.853C299.537 10.9935 298.805 10.9214 298.14 10.6458C297.474 10.3702 296.906 9.90353 296.506 9.30477C296.106 8.70602 295.892 8.00207 295.892 7.28195C295.895 6.3173 296.28 5.39307 296.962 4.71095C297.644 4.02883 298.568 3.6442 299.533 3.64098ZM299.533 21.169C298.095 21.1624 296.68 20.8051 295.411 20.1279C294.142 19.4507 293.057 18.4742 292.251 17.283C292.309 14.8557 297.106 13.5195 299.533 13.5195C301.96 13.5195 306.757 14.8557 306.815 17.283C306.008 18.4733 304.923 19.4491 303.654 20.1262C302.386 20.8033 300.971 21.1612 299.533 21.169Z" fill="#EED581" fill-opacity="0.31"/>
<path d="M439.104 132.896C436.703 132.896 434.357 133.607 432.361 134.941C430.365 136.275 428.81 138.17 427.891 140.388C426.973 142.605 426.732 145.046 427.2 147.4C427.669 149.754 428.825 151.917 430.522 153.614C432.219 155.311 434.382 156.467 436.736 156.936C439.09 157.404 441.531 157.164 443.748 156.245C445.966 155.326 447.862 153.771 449.195 151.775C450.529 149.779 451.24 147.433 451.24 145.032C451.231 141.816 449.949 138.735 447.675 136.461C445.401 134.187 442.32 132.905 439.104 132.896ZM439.104 136.537C439.824 136.537 440.528 136.75 441.127 137.15C441.725 137.55 442.192 138.119 442.468 138.784C442.743 139.45 442.815 140.182 442.675 140.888C442.534 141.594 442.188 142.243 441.678 142.752C441.169 143.261 440.52 143.608 439.814 143.749C439.108 143.889 438.376 143.817 437.711 143.541C437.045 143.266 436.477 142.799 436.076 142.2C435.676 141.602 435.463 140.898 435.463 140.178C435.466 139.213 435.851 138.289 436.533 137.607C437.215 136.924 438.139 136.54 439.104 136.537ZM439.104 154.065C437.666 154.058 436.251 153.701 434.982 153.024C433.713 152.346 432.628 151.37 431.822 150.179C431.88 147.751 436.677 146.415 439.104 146.415C441.531 146.415 446.327 147.751 446.386 150.179C445.579 151.369 444.494 152.345 443.225 153.022C441.956 153.699 440.542 154.057 439.104 154.065Z" fill="#EED581" fill-opacity="0.31"/>
<path d="M435.278 391.716C432.878 391.716 430.532 392.428 428.536 393.762C426.54 395.095 424.984 396.991 424.066 399.209C423.147 401.426 422.907 403.866 423.375 406.221C423.843 408.575 424.999 410.738 426.697 412.435C428.394 414.132 430.556 415.288 432.911 415.756C435.265 416.225 437.705 415.984 439.923 415.066C442.141 414.147 444.036 412.592 445.37 410.596C446.703 408.6 447.415 406.253 447.415 403.853C447.406 400.637 446.124 397.556 443.85 395.282C441.576 393.008 438.494 391.726 435.278 391.716ZM435.278 395.357C435.999 395.357 436.702 395.571 437.301 395.971C437.9 396.371 438.367 396.94 438.642 397.605C438.918 398.27 438.99 399.002 438.849 399.709C438.709 400.415 438.362 401.064 437.853 401.573C437.344 402.082 436.695 402.429 435.989 402.569C435.282 402.71 434.55 402.638 433.885 402.362C433.22 402.087 432.651 401.62 432.251 401.021C431.851 400.422 431.637 399.719 431.637 398.998C431.641 398.034 432.025 397.109 432.707 396.427C433.39 395.745 434.314 395.361 435.278 395.357ZM435.278 412.885C433.84 412.879 432.425 412.522 431.156 411.844C429.887 411.167 428.803 410.191 427.997 408.999C428.055 406.572 432.851 405.236 435.278 405.236C437.706 405.236 442.502 406.572 442.56 408.999C441.753 410.19 440.669 411.166 439.4 411.843C438.131 412.52 436.717 412.878 435.278 412.885Z" fill="#EED581" fill-opacity="0.31"/>
<path d="M30.4749 308.396H29.2612V359.976H30.4749V308.396Z" fill="#EED581" fill-opacity="0.31"/>
<circle cx="190.035" cy="222.677" r="22.472" fill="#EED581"/>
<path d="M186.971 221.656H191.057M182.885 223.699V215.527C182.885 214.985 183.1 214.466 183.484 214.082C183.867 213.699 184.386 213.484 184.928 213.484H197.186C197.727 213.484 198.247 213.699 198.63 214.082C199.013 214.466 199.228 214.985 199.228 215.527V228.806C199.228 229.827 198.616 231.87 196.164 231.87L182.885 223.699ZM196.164 231.87H183.907C182.885 231.87 180.842 231.257 180.842 228.806V226.763H193.1V228.806C193.1 231.257 195.143 231.87 196.164 231.87ZM186.971 217.57H195.143H186.971Z" stroke="#050505" stroke-width="2.04291" stroke-linecap="round" stroke-linejoin="round"/>
</g>
<defs>
<clipPath id="clip0_88_136">
<rect width="473.955" height="435" fill="white" transform="translate(0.0449219)"/>
</clipPath>
</defs>
</svg>
