<svg width="30" height="30" viewBox="0 0 30 30" fill="none" xmlns="http://www.w3.org/2000/svg">
<g clip-path="url(#clip0_471_564)">
<path d="M5.5173 9.62797C6.00506 9.62797 6.47285 9.82173 6.81775 10.1666C7.16264 10.5115 7.35641 10.9793 7.35641 11.4671V24.3408C7.35641 24.8285 7.16264 25.2963 6.81775 25.6412C6.47285 25.9861 6.00506 26.1799 5.5173 26.1799H1.8391C0.825144 26.1799 0 25.356 0 24.3408V11.4671C0 10.4519 0.825144 9.62797 1.8391 9.62797H5.5173ZM16.5519 4.11066C17.0397 4.11066 17.5075 4.30443 17.8524 4.64932C18.1973 4.99422 18.391 5.46201 18.391 5.94977V24.3408C18.391 24.8285 18.1973 25.2963 17.8524 25.6412C17.5075 25.9861 17.0397 26.1799 16.5519 26.1799H12.8737C11.8598 26.1799 11.0346 25.356 11.0346 24.3408V5.94977C11.0346 4.93458 11.8598 4.11066 12.8737 4.11066H16.5519ZM27.5865 13.3062C28.0743 13.3062 28.5421 13.4999 28.887 13.8448C29.2319 14.1897 29.4256 14.6575 29.4256 15.1453V24.3408C29.4256 24.8285 29.2319 25.2963 28.887 25.6412C28.5421 25.9861 28.0743 26.1799 27.5865 26.1799H23.9083C23.4206 26.1799 22.9528 25.9861 22.6079 25.6412C22.263 25.2963 22.0692 24.8285 22.0692 24.3408V15.1453C22.0692 14.6575 22.263 14.1897 22.6079 13.8448C22.9528 13.4999 23.4206 13.3062 23.9083 13.3062H27.5865Z" fill="white"/>
</g>
<defs>
<clipPath id="clip0_471_564">
<rect width="29.4256" height="29.4256" fill="white" transform="translate(0 0.432465)"/>
</clipPath>
</defs>
</svg>
