<svg width="37" height="37" viewBox="0 0 37 37" fill="none" xmlns="http://www.w3.org/2000/svg">
<path d="M25.6154 0.267536C19.4748 0.267536 14.4969 3.01265 14.4969 6.40384C14.4969 9.79504 19.4762 12.5416 25.6154 12.5416C31.756 12.5416 36.7339 9.79504 36.7339 6.40384C36.7339 3.01265 31.7545 0.266113 25.6154 0.266113V0.267536ZM36.7339 8.22681C36.731 11.618 31.756 14.3645 25.6154 14.3645C19.4919 14.3645 14.5253 11.6479 14.4969 8.27234V10.6731C14.4969 12.1218 15.4247 13.4481 16.9446 14.4983C18.4815 14.9167 19.8505 15.4973 20.9904 16.2316C22.4035 16.5902 23.9575 16.8094 25.6154 16.8094C31.756 16.8094 36.7339 14.0643 36.7339 10.6731V8.22681ZM36.7339 12.496C36.7339 15.8872 31.756 18.6338 25.6154 18.6338C24.8683 18.6338 24.1425 18.5783 23.4367 18.5C23.9936 19.2501 24.3736 20.1166 24.5481 21.0345C24.9024 21.0544 25.2525 21.0786 25.6154 21.0786C31.756 21.0786 36.7339 18.3335 36.7339 14.9423V12.496ZM11.3846 15.92C5.24404 15.92 0.266113 18.6665 0.266113 22.0577C0.266113 25.4489 5.24546 28.1954 11.3846 28.1954C17.5252 28.1954 22.5031 25.4489 22.5031 22.0577C22.5031 18.6665 17.5238 15.92 11.3846 15.92ZM36.7339 16.7653C36.731 20.1565 31.756 22.903 25.6154 22.903C25.2582 22.903 24.8967 22.8774 24.5481 22.8575C24.5324 22.9642 24.5239 23.1065 24.504 23.2132C24.5751 23.4281 24.6363 23.6402 24.6363 23.8821V25.3052C24.9593 25.3208 25.2838 25.3478 25.6154 25.3478C31.756 25.3478 36.7339 22.6027 36.7339 19.2115V16.7653ZM36.7339 21.0345C36.731 24.4257 31.756 27.1722 25.6154 27.1722C25.2582 27.1722 24.8967 27.1466 24.5481 27.1267C24.5324 27.2334 24.5239 27.3757 24.504 27.4825C24.5751 27.6959 24.6363 27.9094 24.6363 28.1513V29.5744C24.9593 29.59 25.2838 29.6171 25.6154 29.6171C31.756 29.6171 36.7339 26.872 36.7339 23.4808V21.0345ZM22.5031 23.8807C22.5003 27.2718 17.5252 30.0184 11.3846 30.0184C5.26111 30.0184 0.294575 27.3017 0.266113 23.9248V26.3269C0.266113 29.7181 5.24261 32.4647 11.3846 32.4647C17.5266 32.4647 22.5031 29.7181 22.5031 26.3269V23.8807ZM22.5031 28.1499C22.5003 31.5411 17.5252 34.2876 11.3846 34.2876C5.26111 34.2876 0.294575 31.571 0.266113 28.194V30.5962C0.266113 33.9873 5.24261 36.7339 11.3846 36.7339C17.5266 36.7339 22.5031 33.9873 22.5031 30.5962V28.1499Z" fill="white"/>
</svg>
