<svg width="37" height="37" viewBox="0 0 37 37" fill="none" xmlns="http://www.w3.org/2000/svg">
<path d="M34.6875 32.375C34.6875 32.375 37 32.375 37 30.0625C37 27.75 34.6875 20.8125 25.4375 20.8125C16.1875 20.8125 13.875 27.75 13.875 30.0625C13.875 32.375 16.1875 32.375 16.1875 32.375H34.6875ZM16.2384 30.0625C16.2213 30.0601 16.2043 30.0571 16.1875 30.0533C16.1898 29.4428 16.5737 27.6714 17.945 26.0758C19.2215 24.5796 21.4646 23.125 25.4375 23.125C29.4081 23.125 31.6512 24.5819 32.93 26.0758C34.3013 27.6714 34.6829 29.4451 34.6875 30.0533L34.669 30.0579C34.6582 30.0597 34.6475 30.0612 34.6366 30.0625H16.2384ZM25.4375 16.1875C26.6641 16.1875 27.8405 15.7002 28.7079 14.8329C29.5752 13.9655 30.0625 12.7891 30.0625 11.5625C30.0625 10.3359 29.5752 9.15949 28.7079 8.29213C27.8405 7.42478 26.6641 6.9375 25.4375 6.9375C24.2109 6.9375 23.0345 7.42478 22.1671 8.29213C21.2998 9.15949 20.8125 10.3359 20.8125 11.5625C20.8125 12.7891 21.2998 13.9655 22.1671 14.8329C23.0345 15.7002 24.2109 16.1875 25.4375 16.1875ZM32.375 11.5625C32.375 12.4735 32.1956 13.3757 31.8469 14.2174C31.4983 15.0591 30.9873 15.8238 30.3431 16.4681C29.6988 17.1123 28.9341 17.6233 28.0924 17.9719C27.2507 18.3206 26.3485 18.5 25.4375 18.5C24.5265 18.5 23.6243 18.3206 22.7826 17.9719C21.9409 17.6233 21.1762 17.1123 20.5319 16.4681C19.8877 15.8238 19.3767 15.0591 19.0281 14.2174C18.6794 13.3757 18.5 12.4735 18.5 11.5625C18.5 9.72256 19.2309 7.95798 20.5319 6.65695C21.833 5.35591 23.5976 4.625 25.4375 4.625C27.2774 4.625 29.042 5.35591 30.3431 6.65695C31.6441 7.95798 32.375 9.72256 32.375 11.5625ZM16.0395 21.46C15.1145 21.1687 14.1609 20.9772 13.1951 20.8888C12.6525 20.8372 12.1076 20.8117 11.5625 20.8125C2.3125 20.8125 0 27.75 0 30.0625C0 31.6049 0.770063 32.375 2.3125 32.375H12.062C11.7192 31.6531 11.5482 30.8616 11.5625 30.0625C11.5625 27.7269 12.4343 25.3404 14.0831 23.347C14.6451 22.6671 15.2995 22.0312 16.0395 21.46ZM11.3775 23.125C10.0089 25.1814 9.26952 27.5923 9.25 30.0625H2.3125C2.3125 29.4613 2.69175 27.6806 4.07 26.0758C5.33031 24.605 7.52025 23.1713 11.3775 23.1273V23.125ZM3.46875 12.7188C3.46875 10.8788 4.19966 9.11423 5.5007 7.8132C6.80173 6.51216 8.56631 5.78125 10.4062 5.78125C12.2462 5.78125 14.0108 6.51216 15.3118 7.8132C16.6128 9.11423 17.3438 10.8788 17.3438 12.7188C17.3438 14.5587 16.6128 16.3233 15.3118 17.6243C14.0108 18.9253 12.2462 19.6562 10.4062 19.6562C8.56631 19.6562 6.80173 18.9253 5.5007 17.6243C4.19966 16.3233 3.46875 14.5587 3.46875 12.7188ZM10.4062 8.09375C9.17962 8.09375 8.00324 8.58103 7.13588 9.44838C6.26853 10.3157 5.78125 11.4921 5.78125 12.7188C5.78125 13.9454 6.26853 15.1218 7.13588 15.9891C8.00324 16.8565 9.17962 17.3438 10.4062 17.3438C11.6329 17.3438 12.8093 16.8565 13.6766 15.9891C14.544 15.1218 15.0312 13.9454 15.0312 12.7188C15.0312 11.4921 14.544 10.3157 13.6766 9.44838C12.8093 8.58103 11.6329 8.09375 10.4062 8.09375Z" fill="white"/>
</svg>
