<svg width="29" height="22" viewBox="0 0 29 22" fill="none" xmlns="http://www.w3.org/2000/svg">
<path d="M23.8767 2.29529C22.1051 1.46634 20.2308 0.877334 18.3034 0.543846C18.0633 0.977881 17.7828 1.56166 17.5894 2.02609C15.5113 1.71362 13.4524 1.71362 11.4125 2.02609C11.2192 1.56177 10.9324 0.977881 10.6901 0.543846C8.76083 0.877488 6.88494 1.46799 5.11243 2.29962C1.58528 7.62971 0.629093 12.8273 1.10713 17.9513C3.44658 19.6983 5.71373 20.7596 7.94269 21.454C8.49664 20.6923 8.98632 19.8857 9.40667 19.0428C8.60638 18.7382 7.83487 18.3627 7.10131 17.9209C7.29435 17.7778 7.48285 17.6287 7.66652 17.4738C12.1116 19.5529 16.9413 19.5529 21.3334 17.4738C21.5179 17.6277 21.7063 17.7767 21.8985 17.9209C21.1638 18.3638 20.3908 18.7401 19.5889 19.0451C20.0117 19.8914 20.5005 20.6987 21.0529 21.4562C23.284 20.7618 25.5532 19.7005 27.8927 17.9513C28.4537 12.0113 26.9345 6.86136 23.8767 2.29518V2.29529ZM10.0123 14.8001C8.6779 14.8001 7.58358 13.5543 7.58358 12.0374C7.58358 10.5204 8.65458 9.27256 10.0123 9.27256C11.3701 9.27256 12.4643 10.5182 12.441 12.0374C12.4431 13.5543 11.3701 14.8001 10.0123 14.8001ZM18.9875 14.8001C17.6531 14.8001 16.5589 13.5543 16.5589 12.0374C16.5589 10.5204 17.6298 9.27256 18.9875 9.27256C20.3453 9.27256 21.4396 10.5182 21.4162 12.0374C21.4162 13.5543 20.3453 14.8001 18.9875 14.8001Z" fill="#B3B3B3"/>
</svg>
