<svg width="14" height="15" viewBox="0 0 14 15" fill="none" xmlns="http://www.w3.org/2000/svg">
<path d="M0 7.5C0 5.64348 0.737498 3.86301 2.05025 2.55025C3.36301 1.2375 5.14348 0.5 7 0.5C8.85652 0.5 10.637 1.2375 11.9497 2.55025C13.2625 3.86301 14 5.64348 14 7.5C14 9.35652 13.2625 11.137 11.9497 12.4497C10.637 13.7625 8.85652 14.5 7 14.5C5.14348 14.5 3.36301 13.7625 2.05025 12.4497C0.737498 11.137 0 9.35652 0 7.5ZM6.5625 1.44238C5.97625 1.62088 5.39437 2.15987 4.91138 3.0655C4.75224 3.36658 4.61537 3.67892 4.50187 4H6.5625V1.44238ZM3.57875 4C3.72459 3.53522 3.91201 3.08452 4.13875 2.65337C4.29004 2.3673 4.46477 2.09424 4.66113 1.837C3.577 2.2866 2.64426 3.03717 1.97313 4H3.57875ZM3.0695 7.0625C3.09575 6.29513 3.19025 5.55925 3.3425 4.875H1.46475C1.13848 5.56192 0.943787 6.30388 0.89075 7.0625H3.0695ZM4.24113 4.875C4.06903 5.59233 3.96994 6.32523 3.94537 7.0625H6.5625V4.875H4.24113ZM7.4375 4.875V7.0625H10.0538C10.0295 6.32525 9.93071 5.59235 9.75887 4.875H7.4375ZM3.94625 7.9375C3.97053 8.67474 4.06932 9.40764 4.24113 10.125H6.5625V7.9375H3.94625ZM7.4375 7.9375V10.125H9.75887C9.9225 9.45562 10.0266 8.718 10.0546 7.9375H7.4375ZM4.50187 11C4.62262 11.3378 4.76 11.651 4.91138 11.9345C5.39437 12.8401 5.97713 13.3783 6.5625 13.5576V11H4.50187ZM4.66113 13.163C4.46475 12.9058 4.29003 12.6327 4.13875 12.3466C3.91202 11.9155 3.72459 11.4648 3.57875 11H1.97313C2.64422 11.9629 3.57698 12.7134 4.66113 13.163ZM3.3425 10.125C3.18427 9.40581 3.09288 8.67352 3.0695 7.9375H0.89075C0.945 8.71625 1.14538 9.45387 1.46475 10.125H3.3425ZM9.33887 13.163C10.423 12.7134 11.3558 11.9629 12.0269 11H10.4212C10.2754 11.4648 10.088 11.9155 9.86125 12.3466C9.71 12.6327 9.53527 12.9058 9.33887 13.163ZM7.4375 11V13.5576C8.02375 13.3791 8.60563 12.8401 9.08862 11.9345C9.24 11.651 9.37737 11.3378 9.49813 11H7.4375ZM10.6575 10.125H12.5352C12.8546 9.45387 13.055 8.71625 13.1093 7.9375H10.9305C10.9071 8.67352 10.8157 9.40581 10.6575 10.125ZM13.1093 7.0625C13.0562 6.30389 12.8615 5.56193 12.5352 4.875H10.6575C10.8098 5.55925 10.9043 6.29513 10.9305 7.0625H13.1093ZM9.86125 2.65337C10.0774 3.05938 10.2655 3.51087 10.4212 4H12.0269C11.3558 3.03714 10.423 2.28656 9.33887 1.837C9.52962 2.0855 9.70463 2.36025 9.86125 2.65337ZM9.49813 4C9.38464 3.67891 9.24777 3.36658 9.08862 3.0655C8.60563 2.15987 8.02375 1.62175 7.4375 1.44238V4H9.49813Z" fill="#EED581"/>
</svg>
