<svg width="20" height="18" viewBox="0 0 20 18" fill="none" xmlns="http://www.w3.org/2000/svg">
<path fill-rule="evenodd" clip-rule="evenodd" d="M1.875 1.1875C1.875 0.93886 1.77623 0.700403 1.60041 0.524587C1.4246 0.348772 1.18614 0.25 0.9375 0.25C0.68886 0.25 0.450403 0.348772 0.274587 0.524587C0.098772 0.700403 0 0.93886 0 1.1875L0 16.8125C0 17.33 0.42 17.75 0.9375 17.75H19.0625C19.3111 17.75 19.5496 17.6512 19.7254 17.4754C19.9012 17.2996 20 17.0611 20 16.8125C20 16.5639 19.9012 16.3254 19.7254 16.1496C19.5496 15.9738 19.3111 15.875 19.0625 15.875H1.875V1.1875ZM19.725 4.35C19.8906 4.17228 19.9808 3.93722 19.9765 3.69435C19.9722 3.45147 19.8738 3.21974 19.702 3.04797C19.5303 2.87621 19.2985 2.77782 19.0557 2.77353C18.8128 2.76925 18.5777 2.8594 18.4 3.025L12.5 8.925L9.4125 5.8375C9.23672 5.66194 8.99844 5.56332 8.75 5.56332C8.50156 5.56332 8.26328 5.66194 8.0875 5.8375L4.025 9.9C3.8594 10.0777 3.76925 10.3128 3.77353 10.5557C3.77782 10.7985 3.87621 11.0303 4.04797 11.202C4.21974 11.3738 4.45147 11.4722 4.69435 11.4765C4.93722 11.4808 5.17228 11.3906 5.35 11.225L8.75 7.825L11.8375 10.9125C12.0133 11.0881 12.2516 11.1867 12.5 11.1867C12.7484 11.1867 12.9867 11.0881 13.1625 10.9125L19.725 4.35Z" fill="#4BB543"/>
</svg>
