<svg width="18" height="16" viewBox="0 0 18 16" fill="none" xmlns="http://www.w3.org/2000/svg">
<path d="M11.3703 1.90091C11.6262 1.94531 11.7363 2.29987 11.5492 2.51014L10.5033 3.64135L10.751 5.24459C10.7648 5.5344 10.5226 5.75639 10.2859 5.62381L9.00609 4.86844L7.71528 5.63306C7.47859 5.76564 7.21162 5.54365 7.25015 5.25692L7.49785 3.6506L6.452 2.51014C6.26484 2.29987 6.37493 1.94531 6.63089 1.90091L8.07032 1.66844L8.71986 0.195378C8.8382 -0.0704199 9.17398 -0.0593514 9.28132 0.195378L9.93085 1.66844L11.3703 1.90091ZM10.762 7.89301C11.2492 7.89301 11.6428 8.3339 11.6428 8.87962V14.7993C11.6428 15.345 11.2492 15.7859 10.762 15.7859H7.23914C6.75199 15.7859 6.35842 15.345 6.35842 14.7993V8.87962C6.35842 8.3339 6.75199 7.89301 7.23914 7.89301H10.762ZM4.59697 9.86623C5.08412 9.86623 5.4777 10.3071 5.4777 10.8528V14.7993C5.4777 15.345 5.08412 15.7859 4.59697 15.7859H1.07408C0.587758 15.7859 0.193359 15.345 0.193359 14.7993V10.8528C0.193359 10.3071 0.587758 9.86623 1.07408 9.86623H4.59697ZM12.5235 12.826C12.5235 12.2803 12.9171 11.8394 13.4042 11.8394H16.9271C17.4142 11.8394 17.8078 12.2803 17.8078 12.826V14.7993C17.8078 15.345 17.4142 15.7859 16.9271 15.7859H13.4042C12.9171 15.7859 12.5235 15.345 12.5235 14.7993V12.826Z" fill="#EED581"/>
</svg>
