<svg width="24" height="22" viewBox="0 0 24 22" fill="none" xmlns="http://www.w3.org/2000/svg">
<path d="M15.0335 2.64918C15.3778 2.71105 15.5259 3.20519 15.2741 3.49824L13.8674 5.07476L14.2006 7.30914C14.2191 7.71304 13.8933 8.02242 13.575 7.83765L11.8536 6.78492L10.1174 7.85054C9.79899 8.03531 9.4399 7.72593 9.49173 7.32633L9.8249 5.08765L8.41817 3.49824C8.16644 3.20519 8.31452 2.71105 8.6588 2.64918L10.5949 2.32519L11.4686 0.272231C11.6277 -0.0982021 12.0794 -0.0827763 12.2238 0.272231L13.0974 2.32519L15.0335 2.64918ZM14.2154 11.0002C14.8706 11.0002 15.4 11.6146 15.4 12.3752V20.6252C15.4 21.3857 14.8706 22.0002 14.2154 22.0002H9.47692C8.82168 22.0002 8.29231 21.3857 8.29231 20.6252V12.3752C8.29231 11.6146 8.82168 11.0002 9.47692 11.0002H14.2154ZM5.92308 13.7502C6.57832 13.7502 7.10769 14.3646 7.10769 15.1252V20.6252C7.10769 21.3857 6.57832 22.0002 5.92308 22.0002H1.18462C0.530486 22.0002 0 21.3857 0 20.6252V15.1252C0 14.3646 0.530486 13.7502 1.18462 13.7502H5.92308ZM16.5846 17.8752C16.5846 17.1146 17.114 16.5002 17.7692 16.5002H22.5077C23.1629 16.5002 23.6923 17.1146 23.6923 17.8752V20.6252C23.6923 21.3857 23.1629 22.0002 22.5077 22.0002H17.7692C17.114 22.0002 16.5846 21.3857 16.5846 20.6252V17.8752Z" fill="white"/>
</svg>
