<svg width="15" height="16" viewBox="0 0 15 16" fill="none" xmlns="http://www.w3.org/2000/svg">
<path d="M8.59388 6.90634C8.01368 6.32638 7.2269 6.00058 6.40655 6.00058C5.58619 6.00058 4.79941 6.32638 4.21921 6.90634L2.03117 9.09367C1.45096 9.67388 1.125 10.4608 1.125 11.2814C1.125 12.1019 1.45096 12.8888 2.03117 13.469C2.61138 14.0493 3.39832 14.3752 4.21886 14.3752C5.0394 14.3752 5.82633 14.0493 6.40655 13.469L7.50021 12.3754" stroke="white" stroke-width="1.41667" stroke-linecap="round" stroke-linejoin="round"/>
<path d="M6.40625 9.09366C6.98645 9.67362 7.77323 9.99942 8.59358 9.99942C9.41394 9.99942 10.2007 9.67362 10.7809 9.09366L12.969 6.90633C13.5492 6.32612 13.8751 5.53919 13.8751 4.71864C13.8751 3.8981 13.5492 3.11117 12.969 2.53096C12.3887 1.95075 11.6018 1.62479 10.7813 1.62479C9.96073 1.62479 9.17379 1.95075 8.59358 2.53096L7.49992 3.62462" stroke="white" stroke-width="1.41667" stroke-linecap="round" stroke-linejoin="round"/>
</svg>
