<svg width="15" height="17" viewBox="0 0 15 17" fill="none" xmlns="http://www.w3.org/2000/svg">
<path d="M7.5 0.166656C5.08763 0.166656 3.125 2.03582 3.125 4.33332V6.83332H2.25C1.78587 6.83332 1.34075 7.00892 1.01256 7.32148C0.684374 7.63404 0.5 8.05796 0.5 8.49999V15.1667C0.5 15.6087 0.684374 16.0326 1.01256 16.3452C1.34075 16.6577 1.78587 16.8333 2.25 16.8333H12.75C13.2141 16.8333 13.6592 16.6577 13.9874 16.3452C14.3156 16.0326 14.5 15.6087 14.5 15.1667V8.49999C14.5 8.05796 14.3156 7.63404 13.9874 7.32148C13.6592 7.00892 13.2141 6.83332 12.75 6.83332H11.875V4.33332C11.875 2.03582 9.91237 0.166656 7.5 0.166656ZM4.875 4.33332C4.875 2.95499 6.05275 1.83332 7.5 1.83332C8.94725 1.83332 10.125 2.95499 10.125 4.33332V6.83332H4.875V4.33332ZM8.375 13.2692V15.1667H6.625V13.2692C6.31909 13.1023 6.07345 12.8511 5.92048 12.5486C5.7675 12.2461 5.71437 11.9066 5.7681 11.5748C5.82182 11.243 5.97988 10.9345 6.22142 10.6899C6.46296 10.4454 6.77665 10.2763 7.12113 10.205C7.37699 10.1511 7.64229 10.1526 7.89746 10.2094C8.15264 10.2662 8.39118 10.3768 8.59549 10.533C8.7998 10.6893 8.96467 10.8873 9.07795 11.1123C9.19123 11.3374 9.25002 11.5838 9.25 11.8333C9.2495 12.1248 9.16835 12.411 9.01474 12.663C8.86112 12.9151 8.64047 13.1242 8.375 13.2692Z" fill="white"/>
</svg>
