<svg width="27" height="27" viewBox="0 0 27 27" fill="none" xmlns="http://www.w3.org/2000/svg">
<path d="M6.75 5.0625C5.85489 5.0625 4.99645 5.41808 4.36351 6.05101C3.73058 6.68395 3.375 7.54239 3.375 8.4375V8.77669L13.5 14.229L23.625 8.77838V8.4375C23.625 7.54239 23.2694 6.68395 22.6365 6.05101C22.0035 5.41808 21.1451 5.0625 20.25 5.0625H6.75ZM23.625 10.6937L13.8999 15.93C13.777 15.9962 13.6396 16.0308 13.5 16.0308C13.3604 16.0308 13.223 15.9962 13.1001 15.93L3.375 10.6937V18.5625C3.375 19.4576 3.73058 20.316 4.36351 20.949C4.99645 21.5819 5.85489 21.9375 6.75 21.9375H20.25C21.1451 21.9375 22.0035 21.5819 22.6365 20.949C23.2694 20.316 23.625 19.4576 23.625 18.5625V10.6937Z" fill="#B3B3B3"/>
</svg>
