<svg width="12" height="16" viewBox="0 0 12 16" fill="none" xmlns="http://www.w3.org/2000/svg">
<path d="M4.5 2.06237e-07C4.18967 -0.00016248 3.88694 0.0959278 3.63351 0.275028C3.38008 0.454129 3.18844 0.707422 3.085 1H1.5C1.10218 1 0.720644 1.15804 0.43934 1.43934C0.158035 1.72064 0 2.10218 0 2.5V14.5C0 14.8978 0.158035 15.2794 0.43934 15.5607C0.720644 15.842 1.10218 16 1.5 16H10.5C10.8978 16 11.2794 15.842 11.5607 15.5607C11.842 15.2794 12 14.8978 12 14.5V2.5C12 2.10218 11.842 1.72064 11.5607 1.43934C11.2794 1.15804 10.8978 1 10.5 1H8.915C8.81156 0.707422 8.61992 0.454129 8.36649 0.275028C8.11306 0.0959278 7.81033 -0.00016248 7.5 2.06237e-07H4.5ZM4 1.5C4 1.36739 4.05268 1.24022 4.14645 1.14645C4.24021 1.05268 4.36739 1 4.5 1H7.5C7.63261 1 7.75979 1.05268 7.85355 1.14645C7.94732 1.24022 8 1.36739 8 1.5C8 1.63261 7.94732 1.75979 7.85355 1.85355C7.75979 1.94732 7.63261 2 7.5 2H4.5C4.36739 2 4.24021 1.94732 4.14645 1.85355C4.05268 1.75979 4 1.63261 4 1.5ZM5.354 5.854L3.604 7.604C3.51291 7.69498 3.39023 7.74732 3.26151 7.75012C3.13279 7.75291 3.00796 7.70595 2.913 7.619L2.163 6.934C2.11204 6.89044 2.07035 6.83707 2.04043 6.77708C2.01051 6.71708 1.99296 6.65168 1.98882 6.58476C1.98468 6.51785 1.99405 6.45078 2.01635 6.38756C2.03866 6.32433 2.07346 6.26624 2.11867 6.21674C2.16388 6.16723 2.21859 6.12733 2.27953 6.09939C2.34048 6.07146 2.40642 6.05606 2.47344 6.05413C2.54045 6.05219 2.60718 6.06376 2.66963 6.08813C2.73209 6.1125 2.78901 6.14919 2.837 6.196L3.234 6.558L4.646 5.146C4.69249 5.09951 4.74768 5.06264 4.80842 5.03748C4.86916 5.01232 4.93426 4.99937 5 4.99937C5.06574 4.99937 5.13084 5.01232 5.19158 5.03748C5.25232 5.06264 5.30751 5.09951 5.354 5.146C5.40049 5.19249 5.43736 5.24768 5.46252 5.30842C5.48768 5.36916 5.50063 5.43426 5.50063 5.5C5.50063 5.56574 5.48768 5.63084 5.46252 5.69158C5.43736 5.75232 5.40049 5.80751 5.354 5.854ZM5.354 10.146C5.40056 10.1924 5.43751 10.2476 5.46271 10.3084C5.48792 10.3691 5.50089 10.4342 5.50089 10.5C5.50089 10.5658 5.48792 10.6309 5.46271 10.6916C5.43751 10.7524 5.40056 10.8076 5.354 10.854L3.604 12.604C3.51291 12.695 3.39023 12.7473 3.26151 12.7501C3.13279 12.7529 3.00796 12.7059 2.913 12.619L2.163 11.934C2.07011 11.8434 2.01609 11.7202 2.01234 11.5905C2.0086 11.4608 2.05543 11.3347 2.14293 11.2389C2.23044 11.1431 2.35177 11.085 2.48129 11.077C2.6108 11.069 2.73836 11.1117 2.837 11.196L3.234 11.559L4.646 10.146C4.69245 10.0994 4.74762 10.0625 4.80837 10.0373C4.86911 10.0121 4.93423 9.99911 5 9.99911C5.06577 9.99911 5.13089 10.0121 5.19163 10.0373C5.25238 10.0625 5.30755 10.0994 5.354 10.146ZM7 10.75H9.5C9.63261 10.75 9.75979 10.8027 9.85355 10.8964C9.94732 10.9902 10 11.1174 10 11.25C10 11.3826 9.94732 11.5098 9.85355 11.6036C9.75979 11.6973 9.63261 11.75 9.5 11.75H7C6.86739 11.75 6.74021 11.6973 6.64645 11.6036C6.55268 11.5098 6.5 11.3826 6.5 11.25C6.5 11.1174 6.55268 10.9902 6.64645 10.8964C6.74021 10.8027 6.86739 10.75 7 10.75ZM6.5 6.25C6.5 6.11739 6.55268 5.99021 6.64645 5.89645C6.74021 5.80268 6.86739 5.75 7 5.75H9.5C9.63261 5.75 9.75979 5.80268 9.85355 5.89645C9.94732 5.99021 10 6.11739 10 6.25C10 6.38261 9.94732 6.50979 9.85355 6.60355C9.75979 6.69732 9.63261 6.75 9.5 6.75H7C6.86739 6.75 6.74021 6.69732 6.64645 6.60355C6.55268 6.50979 6.5 6.38261 6.5 6.25Z" fill="white"/>
</svg>
