<svg width="25" height="21" viewBox="0 0 25 21" fill="none" xmlns="http://www.w3.org/2000/svg">
<path d="M5.37294 18.6666C6.71296 18.6666 7.80935 17.6166 7.80935 16.3333C7.80935 15.75 7.56571 15.1666 7.20024 14.8166L8.78391 11.6666H9.02755C9.63666 11.6666 10.2458 11.4333 10.6112 11.0833L13.9004 12.7166V12.8333C13.9004 14.1166 14.9968 15.1666 16.3368 15.1666C17.6768 15.1666 18.7732 14.1166 18.7732 12.8333C18.7732 12.25 18.5296 11.7833 18.1641 11.3166L19.7478 8.16664H19.9914C21.3314 8.16664 22.4278 7.11664 22.4278 5.8333C22.4278 4.54997 21.3314 3.49997 19.9914 3.49997C18.6514 3.49997 17.555 4.54997 17.555 5.8333C17.555 6.41664 17.7986 6.99997 18.1641 7.34997L16.5804 10.5H16.3368C15.7277 10.5 15.1186 10.7333 14.7531 11.0833L11.464 9.56664V9.3333C11.464 8.04997 10.3676 6.99997 9.02755 6.99997C7.68753 6.99997 6.59114 8.04997 6.59114 9.3333C6.59114 9.91664 6.83478 10.5 7.20024 10.85L5.61658 14H5.37294C4.03291 14 2.93652 15.05 2.93652 16.3333C2.93652 17.6166 4.03291 18.6666 5.37294 18.6666Z" fill="#EED581"/>
</svg>
