<svg width="96" height="96" viewBox="0 0 96 96" fill="none" xmlns="http://www.w3.org/2000/svg">
<g opacity="0.35">
<g filter="url(#filter0_d_120_198)">
<circle cx="54.9743" cy="54.9743" r="35.0933" transform="rotate(-10.65 54.9743 54.9743)" fill="#1A1A1A"/>
</g>
<g clip-path="url(#clip0_120_198)">
<path d="M58.828 75.4108C58.1936 75.5279 57.5471 75.5649 56.9035 75.5211L56.7762 75.5103L56.6535 75.4752C52.2147 74.2042 48.2874 72.1614 44.9807 69.4035C42.2404 67.1047 39.9222 64.3455 38.1302 61.2499C35.9864 57.5435 34.5265 53.4818 33.8203 49.2587C33.8054 49.1701 33.794 49.1016 33.7852 49.0546C33.4006 47.0095 34.1983 45.0016 35.8175 43.9392C37.0568 43.1261 48.3222 35.8159 49.1361 35.2877C50.6408 34.143 52.5437 34.5044 52.8501 34.5726C53.5352 34.7131 65.6891 37.2068 68.3464 37.9095C71.0849 38.6338 72.1599 40.6579 72.3633 41.7397C73.2843 46.6373 73.2968 51.3741 72.4005 55.8183C71.6781 59.4151 70.3436 62.8611 68.4551 66.0063C64.8117 72.0759 60.5359 74.7888 60.4943 74.8135C59.9776 75.1074 59.4138 75.3096 58.828 75.4108ZM57.2346 72.9225C57.6523 72.937 58.6003 72.8983 59.1604 72.5658C59.872 72.1435 63.3637 69.4097 66.2141 64.6611C70.1523 58.1003 71.358 50.557 69.798 42.2408C69.7574 42.074 69.4118 40.8949 67.6781 40.4365C65.0724 39.7473 52.4397 37.1566 52.3123 37.1305L52.2773 37.1228C52.0121 37.066 51.189 36.9962 50.7028 37.3802L50.6043 37.4508C50.4836 37.5291 38.5252 45.2888 37.2514 46.1245C36.3603 46.7092 36.2035 47.772 36.3539 48.5716C36.3649 48.63 36.3793 48.7153 36.3979 48.8256C37.3574 54.5362 41.3068 68.2895 57.2346 72.9225Z" fill="#3F3D56"/>
<path d="M49.8932 36.3546C49.8932 36.3546 37.8261 44.1846 36.5347 45.0319C35.2434 45.8792 34.8063 47.4121 35.0698 48.8132C35.3333 50.2143 37.7204 68.6946 57.0135 74.2189C57.0135 74.2189 58.6969 74.3607 59.8277 73.6897C60.9584 73.0186 74.9655 62.6477 71.0792 41.9812C71.0792 41.9812 70.684 39.8796 68.0125 39.173C65.341 38.4665 52.575 35.8503 52.575 35.8503C52.575 35.8503 50.9984 35.4818 49.8932 36.3546Z" fill="#B3B3B3"/>
<path opacity="0.1" d="M52.0846 40.2944L57.4726 68.9466C57.4726 68.9466 43.0844 65.0766 40.0614 48.358L52.0846 40.2944Z" fill="#EED581"/>
<path d="M53.407 60.9399L48.1879 56.3262L50.2746 53.9656L52.7458 56.1501L58.1341 47.789L60.7827 49.4963L53.407 60.9399Z" fill="white"/>
</g>
</g>
<defs>
<filter id="filter0_d_120_198" x="0.874756" y="0.874725" width="94.1991" height="94.1992" filterUnits="userSpaceOnUse" color-interpolation-filters="sRGB">
<feFlood flood-opacity="0" result="BackgroundImageFix"/>
<feColorMatrix in="SourceAlpha" type="matrix" values="0 0 0 0 0 0 0 0 0 0 0 0 0 0 0 0 0 0 127 0" result="hardAlpha"/>
<feOffset dx="-7" dy="-7"/>
<feGaussianBlur stdDeviation="6"/>
<feColorMatrix type="matrix" values="0 0 0 0 1 0 0 0 0 1 0 0 0 0 1 0 0 0 0.27 0"/>
<feBlend mode="normal" in2="BackgroundImageFix" result="effect1_dropShadow_120_198"/>
<feBlend mode="normal" in="SourceGraphic" in2="effect1_dropShadow_120_198" result="shape"/>
</filter>
<clipPath id="clip0_120_198">
<rect width="39.4799" height="42.7699" fill="white" transform="translate(31.7235 38.1446) rotate(-10.65)"/>
</clipPath>
</defs>
</svg>
