<svg xmlns="http://www.w3.org/2000/svg" fill="none" viewBox="102.62 58.95 167.87 294.17">
<path d="M269.86 150.183C269.231 148.688 268.176 147.41 266.828 146.508C265.479 145.606 263.896 145.118 262.273 145.107H110.828C108.651 145.108 106.564 145.973 105.025 147.513C103.485 149.052 102.62 151.139 102.619 153.316V344.908C102.62 347.085 103.485 349.173 105.025 350.712C106.564 352.251 108.651 353.117 110.828 353.118H262.279C264.455 353.115 266.541 352.249 268.08 350.71C269.619 349.171 270.485 347.085 270.488 344.908V153.316C270.492 152.241 270.28 151.176 269.866 150.183H269.86ZM268.66 344.908C268.658 346.601 267.984 348.225 266.787 349.422C265.59 350.619 263.966 351.293 262.273 351.295H110.828C109.135 351.294 107.511 350.621 106.313 349.424C105.116 348.227 104.443 346.603 104.442 344.909V153.318C104.444 151.624 105.118 150.001 106.315 148.804C107.512 147.607 109.135 146.933 110.828 146.931H262.279C263.554 146.936 264.799 147.321 265.855 148.036C266.911 148.752 267.729 149.766 268.206 150.949C268.299 151.184 268.38 151.425 268.447 151.669C268.592 152.207 268.665 152.761 268.665 153.318L268.66 344.908Z" fill="white"/>
<path d="M238.763 190.341H193.146C192.178 190.341 191.25 189.957 190.565 189.272C189.881 188.588 189.496 187.659 189.496 186.692C189.496 185.724 189.881 184.795 190.565 184.111C191.25 183.427 192.178 183.042 193.146 183.042H238.763C239.731 183.042 240.659 183.427 241.344 184.111C242.028 184.795 242.413 185.724 242.413 186.692C242.413 187.659 242.028 188.588 241.344 189.272C240.659 189.957 239.731 190.341 238.763 190.341Z" fill="white"/>
<path d="M238.763 209.5H193.146C192.178 209.5 191.25 209.116 190.565 208.431C189.881 207.747 189.496 206.819 189.496 205.851C189.496 204.883 189.881 203.955 190.565 203.27C191.25 202.586 192.178 202.201 193.146 202.201H238.763C239.731 202.201 240.659 202.586 241.344 203.27C242.028 203.955 242.413 204.883 242.413 205.851C242.413 206.819 242.028 207.747 241.344 208.431C240.659 209.116 239.731 209.5 238.763 209.5Z" fill="white"/>
<path d="M169.74 220.41H136.403C135.314 220.408 134.271 219.975 133.501 219.206C132.731 218.436 132.298 217.392 132.297 216.304V176.963C132.298 175.875 132.731 174.831 133.501 174.061C134.271 173.292 135.314 172.859 136.403 172.858H169.74C170.829 172.859 171.872 173.292 172.642 174.061C173.412 174.831 173.845 175.875 173.846 176.963V216.304C173.845 217.392 173.412 218.436 172.642 219.206C171.872 219.975 170.829 220.408 169.74 220.41Z" fill="#EED581"/>
<path d="M238.446 248.731H135.352C134.384 248.731 133.455 248.347 132.771 247.662C132.087 246.978 131.702 246.05 131.702 245.082C131.702 244.114 132.087 243.186 132.771 242.501C133.455 241.817 134.384 241.432 135.352 241.432H238.446C238.926 241.432 239.4 241.527 239.843 241.71C240.286 241.894 240.688 242.162 241.027 242.501C241.366 242.84 241.635 243.243 241.818 243.685C242.002 244.128 242.096 244.603 242.096 245.082C242.096 245.561 242.002 246.036 241.818 246.479C241.635 246.921 241.366 247.324 241.027 247.662C240.688 248.001 240.286 248.27 239.843 248.454C239.4 248.637 238.926 248.731 238.446 248.731Z" fill="white"/>
<path d="M238.446 267.891H135.352C134.384 267.891 133.455 267.506 132.771 266.822C132.087 266.137 131.702 265.209 131.702 264.241C131.702 263.273 132.087 262.345 132.771 261.66C133.455 260.976 134.384 260.592 135.352 260.592H238.446C239.414 260.592 240.343 260.976 241.027 261.66C241.711 262.345 242.096 263.273 242.096 264.241C242.096 265.209 241.711 266.137 241.027 266.822C240.343 267.506 239.414 267.891 238.446 267.891Z" fill="white"/>
<path d="M238.446 287.05H135.352C134.384 287.05 133.455 286.665 132.771 285.981C132.087 285.296 131.702 284.368 131.702 283.4C131.702 282.432 132.087 281.504 132.771 280.819C133.455 280.135 134.384 279.75 135.352 279.75H238.446C239.414 279.75 240.343 280.135 241.027 280.819C241.711 281.504 242.096 282.432 242.096 283.4C242.096 284.368 241.711 285.296 241.027 285.981C240.343 286.665 239.414 287.05 238.446 287.05Z" fill="white"/>
<path d="M238.446 306.209H135.352C134.384 306.209 133.455 305.825 132.771 305.14C132.087 304.456 131.702 303.528 131.702 302.56C131.702 301.592 132.087 300.663 132.771 299.979C133.455 299.295 134.384 298.91 135.352 298.91H238.446C239.414 298.91 240.343 299.295 241.027 299.979C241.711 300.663 242.096 301.592 242.096 302.56C242.096 303.528 241.711 304.456 241.027 305.14C240.343 305.825 239.414 306.209 238.446 306.209Z" fill="white"/>
<path d="M238.446 325.368H135.352C134.384 325.368 133.455 324.983 132.771 324.299C132.087 323.615 131.702 322.686 131.702 321.718C131.702 320.75 132.087 319.822 132.771 319.138C133.455 318.453 134.384 318.069 135.352 318.069H238.446C239.414 318.069 240.343 318.453 241.027 319.138C241.711 319.822 242.096 320.75 242.096 321.718C242.096 322.686 241.711 323.615 241.027 324.299C240.343 324.983 239.414 325.368 238.446 325.368Z" fill="white"/>
<path d="M186.936 114.628C186.723 114.628 186.509 114.573 186.318 114.462L163.28 101.161C162.898 100.941 162.662 100.532 162.662 100.09V73.489C162.662 73.0473 162.898 72.6384 163.28 72.4175L186.318 59.1171C186.7 58.8962 187.172 58.8962 187.555 59.1171L210.592 72.4175C210.975 72.6384 211.21 73.0473 211.21 73.489V100.09C211.21 100.532 210.975 100.941 210.592 101.161L187.555 114.462C187.363 114.573 187.15 114.628 186.936 114.628ZM165.136 99.376L186.936 111.961L208.736 99.3754V74.2035L186.936 61.6175L165.136 74.2035V99.376Z" fill="white"/>
<path d="M176.284 101.226C175.735 101.226 175.242 100.861 175.093 100.319L171.501 87.3351V96.7469C171.501 97.4299 170.947 97.9842 170.264 97.9842C169.581 97.9842 169.027 97.4299 169.027 96.7469V78.2215C169.027 77.6029 169.484 77.0789 170.098 76.9954C170.711 76.9125 171.292 77.2948 171.457 77.8918L175.048 90.8755V74.4238C175.048 73.7408 175.602 73.1865 176.285 73.1865C176.968 73.1865 177.523 73.7408 177.523 74.4238V99.9891C177.523 100.608 177.065 101.132 176.452 101.215C176.395 101.223 176.34 101.226 176.284 101.226Z" fill="white"/>
<path d="M204.844 78.5557C204.626 78.5557 204.406 78.4982 204.206 78.3769L196.35 73.6302C195.766 73.277 195.578 72.5161 195.931 71.9315C196.284 71.3456 197.046 71.1594 197.63 71.512L205.485 76.2587C206.07 76.612 206.258 77.3729 205.904 77.9575C205.672 78.3429 205.263 78.5557 204.844 78.5557Z" fill="white"/>
<path d="M181.53 104.94C180.847 104.94 180.293 104.386 180.293 103.703V69.9051C180.293 69.4696 180.522 69.0663 180.895 68.8429L186.451 65.5234C186.843 65.2889 187.333 65.2908 187.725 65.5265L194.444 69.5872C195.029 69.9404 195.217 70.7013 194.864 71.2865C194.51 71.8711 193.749 72.058 193.165 71.7053L187.082 68.0288L182.767 70.6067V103.703C182.767 104.386 182.214 104.94 181.53 104.94Z" fill="white"/>
<path d="M192.418 87.9215H181.53C180.847 87.9215 180.293 87.3672 180.293 86.6843C180.293 86.0013 180.847 85.447 181.53 85.447H192.418C193.101 85.447 193.655 86.0013 193.655 86.6843C193.655 87.3672 193.101 87.9215 192.418 87.9215Z" fill="white"/>
<path d="M200.751 100.917C200.068 100.917 199.514 100.363 199.514 99.6797V74.8437C199.514 74.1607 200.068 73.6064 200.751 73.6064C201.434 73.6064 201.989 74.1607 201.989 74.8437V99.6791C201.989 100.363 201.435 100.917 200.751 100.917Z" fill="white"/>
</svg>