<svg width="23" height="21" viewBox="0 0 23 21" fill="none" xmlns="http://www.w3.org/2000/svg">
<path d="M18.5674 3.62499V0.874992L4.81738 0.874992V3.62499L0.692383 3.62499L0.692383 6.37499C0.692343 7.02268 0.844822 7.66128 1.13747 8.23908C1.43013 8.81689 1.85473 9.31766 2.3769 9.70085C2.89907 10.084 3.50414 10.3389 4.14312 10.4448C4.7821 10.5506 5.43703 10.5045 6.05488 10.3102C7.06403 11.7559 8.58998 12.7586 10.3174 13.1111L10.3174 17.3736H8.94238C8.21304 17.3736 7.51356 17.6634 6.99784 18.1791C6.48211 18.6948 6.19238 19.3943 6.19238 20.1236H17.1924C17.1924 19.3943 16.9027 18.6948 16.3869 18.1791C15.8712 17.6634 15.1717 17.3736 14.4424 17.3736H13.0674L13.0674 13.1111C14.7946 12.7582 16.3204 11.7556 17.3299 10.3102C17.9477 10.5045 18.6027 10.5506 19.2416 10.4448C19.8806 10.3389 20.4857 10.084 21.0079 9.70085C21.53 9.31766 21.9546 8.81689 22.2473 8.23908C22.5399 7.66128 22.6924 7.02268 22.6924 6.37499V3.62499L18.5674 3.62499ZM4.81738 8.86787C4.15645 8.86714 3.5228 8.60426 3.05546 8.13692C2.58811 7.66957 2.32524 7.03592 2.32451 6.37499V4.99999H4.81738V6.37499C4.81738 7.23849 4.97688 8.06487 5.26701 8.82524C5.12126 8.85137 4.97001 8.86649 4.81738 8.86649V8.86787ZM21.0603 6.37499C21.0597 6.74026 20.979 7.10096 20.8238 7.43162C20.6686 7.76229 20.4427 8.05485 20.1621 8.28867C19.8815 8.52248 19.553 8.69184 19.1997 8.7848C18.8465 8.87775 18.4771 8.89202 18.1178 8.82662C18.4158 8.04411 18.5682 7.2137 18.5674 6.37637V5.00137H21.0603V6.37637V6.37499Z" fill="#B3B3B3"/>
</svg>
