<svg width="276" height="269" viewBox="0 0 276 269" fill="none" xmlns="http://www.w3.org/2000/svg">
<path d="M222.429 93.5185V232.612C222.425 234.445 221.696 236.201 220.4 237.497C219.104 238.793 217.348 239.522 215.515 239.526H65.8469C64.0144 239.522 62.2581 238.793 60.9624 237.497C59.6666 236.201 58.9369 234.445 58.9329 232.612V93.5185C58.9341 91.6852 59.663 89.9273 60.9593 88.6309C62.2557 87.3345 64.0136 86.6058 65.8469 86.6045H215.515C217.349 86.6057 219.106 87.3345 220.403 88.6309C221.699 89.9273 222.428 91.6852 222.429 93.5185Z" fill="white"/>
<path d="M151.255 240.226H130.106C128.296 240.247 126.553 239.55 125.257 238.287C123.96 237.024 123.218 235.299 123.192 233.49V89.2045C123.218 87.3952 123.96 85.6701 125.257 84.4074C126.553 83.1448 128.296 82.4477 130.106 82.469H151.255C153.064 82.4477 154.808 83.1448 156.104 84.4074C157.4 85.6701 158.143 87.3952 158.169 89.2045V233.49C158.143 235.299 157.4 237.024 156.104 238.287C154.808 239.55 153.064 240.247 151.255 240.226Z" fill="#EED581"/>
<path d="M136.326 43.066C147.195 52.474 143.763 74.2464 143.763 74.2464C143.763 74.2464 122.708 80.7655 111.838 71.3575C100.969 61.9494 104.401 40.1771 104.401 40.1771C104.401 40.1771 125.456 33.658 136.326 43.066Z" fill="#EED581"/>
<path d="M172.429 69.5543C163.055 80.4532 141.272 77.089 141.272 77.089C141.272 77.089 134.687 56.0542 144.061 45.1554C153.435 34.2566 175.218 37.6208 175.218 37.6208C175.218 37.6208 181.803 58.6555 172.429 69.5543Z" fill="#EED581"/>
<path opacity="0.2" d="M222.429 93.5185V116.937L58.9329 116.245V93.5185C58.9341 91.6852 59.663 89.9273 60.9593 88.6309C62.2557 87.3345 64.0135 86.6058 65.8469 86.6045H215.515C217.348 86.6057 219.106 87.3345 220.403 88.6308C221.699 89.9272 222.428 91.6851 222.429 93.5185Z" fill="black"/>
<path d="M240.034 107.756C239.387 108.607 238.551 109.295 237.592 109.768C236.634 110.241 235.578 110.484 234.51 110.48L52.3062 109.715C51.3982 109.712 50.4999 109.529 49.6625 109.178C48.8252 108.827 48.065 108.315 47.4257 107.67C46.7864 107.025 46.2803 106.261 45.9363 105.421C45.5924 104.58 45.4173 103.681 45.4211 102.773L45.5065 82.4371C45.514 80.6038 46.2496 78.8485 47.5513 77.5574C48.853 76.2664 50.6143 75.5453 52.4476 75.5528H52.4497L234.653 76.3166C235.561 76.3204 236.459 76.503 237.296 76.8539C238.134 77.2049 238.894 77.7173 239.533 78.362C240.172 79.0067 240.678 79.7711 241.022 80.6114C241.366 81.4517 241.541 82.3515 241.538 83.2594L241.452 103.595C241.448 105.1 240.95 106.562 240.034 107.756Z" fill="white"/>
<path d="M123.629 74.2272L123.483 110.831L158.459 110.971L158.606 74.3674L123.629 74.2272Z" fill="#EED581"/>
</svg>
