<svg width="204" height="201" viewBox="0 0 204 201" fill="none" xmlns="http://www.w3.org/2000/svg">
<g clip-path="url(#clip0_133_295)">
<path fill-rule="evenodd" clip-rule="evenodd" d="M91.1383 0C100.871 6.23949 111.025 11.7945 121.529 16.6247C118.619 20.2725 116.187 24.2764 114.291 28.5396C106.341 24.6479 98.6166 20.3114 91.1548 15.5505C68.5314 33.1337 42.5037 41.8757 14.0963 40.3388C11.948 122.173 42.5037 167.585 91.4523 185.4C126.47 172.179 151.704 145.54 162.694 104.788H163.95C168.128 104.792 172.293 104.309 176.36 103.351C163.933 153.01 134.204 184.838 91.4523 200.95C32.4561 179.451 -2.46229 126.668 0.132214 28.0934C31.1672 29.746 61.6237 23.0035 91.1383 0.0826276V0Z" fill="#EED581" fill-opacity="0.31"/>
<path fill-rule="evenodd" clip-rule="evenodd" d="M66.5982 87.7343H69.077V82.2644C69.0638 76.1866 71.3962 70.338 75.5881 65.9372C77.6179 63.7666 80.0719 62.0362 82.7981 60.8531C85.5242 59.67 88.4643 59.0596 91.4361 59.0596C94.4078 59.0596 97.3479 59.67 100.074 60.8531C102.8 62.0362 105.254 63.7666 107.284 65.9372C111.517 70.3195 113.886 76.1718 113.894 82.2644V87.7343H116.357C117.325 87.7343 118.254 88.1191 118.939 88.804C119.624 89.4889 120.009 90.4179 120.009 91.3865V129.974C120.004 130.941 119.618 131.867 118.934 132.551C118.25 133.235 117.324 133.621 116.357 133.626H66.5982C65.6309 133.621 64.7045 133.235 64.0205 132.551C63.3366 131.867 62.9504 130.941 62.946 129.974V91.3865C62.946 90.4179 63.3308 89.4889 64.0157 88.804C64.7006 88.1191 65.6296 87.7343 66.5982 87.7343ZM75.9847 87.7343H106.904V82.2644C106.931 77.9616 105.29 73.8156 102.326 70.6965C100.935 69.2027 99.2502 68.0114 97.378 67.1968C95.5059 66.3822 93.486 65.9619 91.4443 65.9619C89.4026 65.9619 87.3828 66.3822 85.5106 67.1968C83.6384 68.0114 81.954 69.2027 80.5623 70.6965C77.5983 73.8156 75.9576 77.9616 75.9847 82.2644V87.7343ZM88.4449 112.374L84.5119 122.702H98.3768L94.7246 112.225C96.1656 111.481 97.3117 110.269 97.9757 108.79C98.6397 107.31 98.7825 105.648 98.3807 104.077C97.9789 102.505 97.0563 101.117 95.7634 100.137C94.4706 99.1574 92.8839 98.645 91.2623 98.6834C89.6407 98.7218 88.0801 99.3088 86.835 100.348C85.59 101.388 84.7342 102.819 84.4072 104.408C84.0803 105.997 84.3015 107.649 85.0349 109.096C85.7682 110.543 86.9703 111.698 88.4449 112.374Z" fill="#EED581"/>
<path fill-rule="evenodd" clip-rule="evenodd" d="M163.983 11.4355C171.713 11.4355 179.269 13.7277 185.696 18.0222C192.123 22.3167 197.133 28.4206 200.091 35.5621C203.049 42.7035 203.823 50.5618 202.315 58.1431C200.807 65.7245 197.085 72.6884 191.619 78.1542C186.153 83.62 179.189 87.3423 171.608 88.8503C164.026 90.3584 156.168 89.5844 149.027 86.6263C141.885 83.6682 135.781 78.6589 131.487 72.2317C127.192 65.8046 124.9 58.2483 124.9 50.5184C124.9 40.153 129.018 30.2121 136.347 22.8827C143.677 15.5532 153.618 11.4355 163.983 11.4355ZM154.993 49.5765C156.117 50.5184 157.172 51.5401 158.15 52.6337C161.141 47.8374 164.453 43.2493 168.065 38.901C177.98 27.0356 173.436 29.3327 187.069 29.3327L185.086 31.481C180.47 36.7158 176.276 42.3079 172.543 48.2048C167.815 55.0366 163.526 62.1625 159.703 69.5393L158.53 71.8198L157.439 69.5063C155.514 65.3005 153.078 61.3486 150.184 57.7401C147.574 54.4478 144.463 51.5869 140.963 49.2625C142.731 43.429 151.192 46.4201 154.977 49.626L154.993 49.5765Z" fill="#EED581" fill-opacity="0.31"/>
</g>
<defs>
<clipPath id="clip0_133_295">
<rect width="203.066" height="201" fill="white"/>
</clipPath>
</defs>
</svg>
