<svg width="19" height="19" viewBox="0 0 19 19" fill="none" xmlns="http://www.w3.org/2000/svg">
<path d="M17.4178 7.07548C17.3694 6.93277 17.2802 6.80737 17.1613 6.71477C17.0424 6.62217 16.899 6.56642 16.7487 6.55439L12.3542 6.2052L10.4526 1.99568C10.392 1.8601 10.2935 1.74495 10.1689 1.66412C10.0444 1.58328 9.89909 1.54023 9.7506 1.54015C9.60211 1.54006 9.45676 1.58296 9.33211 1.66366C9.20746 1.74435 9.10883 1.8594 9.04812 1.99491L7.14647 6.2052L2.75195 6.55439C2.6043 6.56609 2.46315 6.62008 2.34538 6.70989C2.22761 6.79971 2.13821 6.92156 2.08787 7.06085C2.03754 7.20015 2.0284 7.351 2.06155 7.49535C2.0947 7.6397 2.16874 7.77145 2.2748 7.87483L5.52233 11.0406L4.37378 16.0141C4.33891 16.1646 4.35009 16.3222 4.40587 16.4663C4.46164 16.6104 4.55945 16.7344 4.68659 16.8222C4.81373 16.9101 4.96433 16.9577 5.11886 16.9588C5.27338 16.96 5.4247 16.9147 5.55316 16.8288L9.75035 14.0307L13.9475 16.8288C14.0788 16.916 14.2337 16.9609 14.3913 16.9574C14.5488 16.954 14.7015 16.9024 14.8289 16.8095C14.9563 16.7167 15.0521 16.587 15.1036 16.4381C15.1551 16.2891 15.1597 16.128 15.1169 15.9763L13.707 11.043L17.2035 7.89641C17.4325 7.68983 17.5165 7.36762 17.4178 7.07548Z" fill="#EED581"/>
</svg>
