<svg width="18" height="18" viewBox="0 0 18 18" fill="none" xmlns="http://www.w3.org/2000/svg">
<path d="M7.64961 1.8C7.37032 1.79986 7.09785 1.88634 6.86977 2.04753C6.64168 2.20872 6.46921 2.43668 6.37611 2.7H4.94961C4.59157 2.7 4.24819 2.84223 3.99502 3.09541C3.74184 3.34858 3.59961 3.69196 3.59961 4.05V14.85C3.59961 15.208 3.74184 15.5514 3.99502 15.8046C4.24819 16.0578 4.59157 16.2 4.94961 16.2H13.0496C13.4077 16.2 13.751 16.0578 14.0042 15.8046C14.2574 15.5514 14.3996 15.208 14.3996 14.85V4.05C14.3996 3.69196 14.2574 3.34858 14.0042 3.09541C13.751 2.84223 13.4077 2.7 13.0496 2.7H11.6231C11.53 2.43668 11.3575 2.20872 11.1295 2.04753C10.9014 1.88634 10.6289 1.79986 10.3496 1.8H7.64961ZM7.19961 3.15C7.19961 3.03066 7.24702 2.9162 7.33141 2.83181C7.4158 2.74741 7.53026 2.7 7.64961 2.7H10.3496C10.469 2.7 10.5834 2.74741 10.6678 2.83181C10.7522 2.9162 10.7996 3.03066 10.7996 3.15C10.7996 3.26935 10.7522 3.38381 10.6678 3.4682C10.5834 3.55259 10.469 3.6 10.3496 3.6H7.64961C7.53026 3.6 7.4158 3.55259 7.33141 3.4682C7.24702 3.38381 7.19961 3.26935 7.19961 3.15ZM8.41821 7.0686L6.84321 8.6436C6.76123 8.72549 6.65081 8.77259 6.53497 8.77511C6.41912 8.77762 6.30677 8.73535 6.22131 8.6571L5.54631 8.0406C5.50044 8.0014 5.46293 7.95337 5.436 7.89937C5.40907 7.84538 5.39327 7.78652 5.38955 7.72629C5.38582 7.66607 5.39425 7.60571 5.41433 7.54881C5.4344 7.4919 5.46572 7.43962 5.50641 7.39507C5.5471 7.35051 5.59634 7.3146 5.65119 7.28945C5.70604 7.26431 5.76539 7.25046 5.8257 7.24872C5.88602 7.24698 5.94607 7.25738 6.00228 7.27932C6.05849 7.30125 6.10972 7.33427 6.15291 7.3764L6.51021 7.7022L7.78101 6.4314C7.82285 6.38956 7.87252 6.35638 7.92718 6.33373C7.98185 6.31109 8.04044 6.29943 8.09961 6.29943C8.15878 6.29943 8.21737 6.31109 8.27203 6.33373C8.3267 6.35638 8.37637 6.38956 8.41821 6.4314C8.46005 6.47324 8.49324 6.52291 8.51588 6.57758C8.53852 6.63224 8.55018 6.69083 8.55018 6.75C8.55018 6.80917 8.53852 6.86776 8.51588 6.92243C8.49324 6.97709 8.46005 7.02676 8.41821 7.0686ZM8.41821 10.9314C8.46012 10.9732 8.49336 11.0229 8.51605 11.0775C8.53874 11.1322 8.55041 11.1908 8.55041 11.25C8.55041 11.3092 8.53874 11.3678 8.51605 11.4225C8.49336 11.4771 8.46012 11.5268 8.41821 11.5686L6.84321 13.1436C6.76123 13.2255 6.65081 13.2726 6.53497 13.2751C6.41912 13.2776 6.30677 13.2354 6.22131 13.1571L5.54631 12.5406C5.46271 12.4591 5.41409 12.3482 5.41072 12.2315C5.40735 12.1147 5.44949 12.0012 5.52825 11.915C5.60701 11.8288 5.7162 11.7765 5.83277 11.7693C5.94933 11.7621 6.06413 11.8005 6.15291 11.8764L6.51021 12.2031L7.78101 10.9314C7.82281 10.8895 7.87247 10.8562 7.92714 10.8336C7.98181 10.8109 8.04042 10.7992 8.09961 10.7992C8.1588 10.7992 8.21741 10.8109 8.27208 10.8336C8.32675 10.8562 8.37641 10.8895 8.41821 10.9314ZM9.89961 11.475H12.1496C12.269 11.475 12.3834 11.5224 12.4678 11.6068C12.5522 11.6912 12.5996 11.8057 12.5996 11.925C12.5996 12.0444 12.5522 12.1588 12.4678 12.2432C12.3834 12.3276 12.269 12.375 12.1496 12.375H9.89961C9.78026 12.375 9.6658 12.3276 9.58141 12.2432C9.49702 12.1588 9.44961 12.0444 9.44961 11.925C9.44961 11.8057 9.49702 11.6912 9.58141 11.6068C9.6658 11.5224 9.78026 11.475 9.89961 11.475ZM9.44961 7.425C9.44961 7.30566 9.49702 7.1912 9.58141 7.1068C9.6658 7.02241 9.78026 6.975 9.89961 6.975H12.1496C12.269 6.975 12.3834 7.02241 12.4678 7.1068C12.5522 7.1912 12.5996 7.30566 12.5996 7.425C12.5996 7.54435 12.5522 7.65881 12.4678 7.7432C12.3834 7.82759 12.269 7.875 12.1496 7.875H9.89961C9.78026 7.875 9.6658 7.82759 9.58141 7.7432C9.49702 7.65881 9.44961 7.54435 9.44961 7.425Z" fill="#B3B3B3"/>
</svg>
