<svg width="79" height="79" viewBox="0 0 79 79" fill="none" xmlns="http://www.w3.org/2000/svg">
<g opacity="0.35">
<g filter="url(#filter0_d_118_181)">
<circle cx="42.6871" cy="42.7836" r="28.7758" transform="rotate(24 42.6871 42.7836)" fill="#1A1A1A"/>
</g>
<path d="M46.3326 38.8511L47.0904 35.2863L55.2422 37.019L56.3968 31.5875L34.1989 26.8692L33.0444 32.3007L41.1973 34.0337L40.4402 37.5956C33.7496 36.4916 28.4887 36.7448 28.1545 38.3168C27.8204 39.8889 32.5259 42.2606 39.0842 43.9747L36.6572 55.3933L42.5522 56.6463L44.9795 45.2267C51.6583 46.3273 56.9089 46.0728 57.2427 44.5022C57.5766 42.9317 52.8834 40.5636 46.3344 38.8525L46.3326 38.8511ZM45.185 44.2596L45.1856 44.2567C45.0171 44.2319 44.1517 44.1015 42.249 43.6971C40.7278 43.3738 39.6667 43.1032 39.2937 43.0033L39.2927 43.0081C33.494 41.5046 29.3412 39.5564 29.6005 38.3367C29.8597 37.1169 34.4461 37.0278 40.3546 38.0122L39.5086 41.9926C39.8864 42.1004 40.9692 42.3982 42.4827 42.7199C44.3006 43.1063 45.2307 43.2248 45.4017 43.2452L46.2477 39.2648C52.0347 40.7669 56.1772 42.7139 55.9189 43.9293C55.6605 45.1447 51.0822 45.2385 45.1865 44.2574" fill="#B3B3B3"/>
</g>
<defs>
<filter id="filter0_d_118_181" x="0.558887" y="0.655415" width="77.5838" height="77.5838" filterUnits="userSpaceOnUse" color-interpolation-filters="sRGB">
<feFlood flood-opacity="0" result="BackgroundImageFix"/>
<feColorMatrix in="SourceAlpha" type="matrix" values="0 0 0 0 0 0 0 0 0 0 0 0 0 0 0 0 0 0 127 0" result="hardAlpha"/>
<feOffset dx="-3.33632" dy="-3.33632"/>
<feGaussianBlur stdDeviation="5.00448"/>
<feColorMatrix type="matrix" values="0 0 0 0 1 0 0 0 0 1 0 0 0 0 1 0 0 0 0.27 0"/>
<feBlend mode="normal" in2="BackgroundImageFix" result="effect1_dropShadow_118_181"/>
<feBlend mode="normal" in="SourceGraphic" in2="effect1_dropShadow_118_181" result="shape"/>
</filter>
</defs>
</svg>
