<svg width="32" height="29" viewBox="0 0 32 29" fill="none" xmlns="http://www.w3.org/2000/svg">
<path d="M18.9672 10.1322V6.40822H27.4832V0.734066L4.29394 0.734066V6.40822H12.8109V10.1292C5.88909 10.4472 0.68457 11.818 0.68457 13.4602C0.68457 15.1025 5.8916 16.4733 12.8109 16.7932V28.7218H18.9692V16.7922C25.8786 16.4733 31.0726 15.1035 31.0726 13.4627C31.0726 11.822 25.8786 10.4522 18.9692 10.1332L18.9672 10.1322ZM18.9692 15.7819V15.7789C18.7955 15.7899 17.9028 15.8435 15.9151 15.8435C14.326 15.8435 13.208 15.7984 12.8139 15.7779V15.7829C6.69869 15.512 2.13403 14.4471 2.13403 13.1729C2.13403 11.8986 6.69919 10.8352 12.8139 10.5638V14.7219C13.2145 14.7495 14.36 14.8171 15.9412 14.8171C17.8402 14.8171 18.795 14.738 18.9702 14.7219V10.5638C25.0735 10.8357 29.6276 11.9016 29.6276 13.1713C29.6276 14.4411 25.0715 15.5075 18.9702 15.7794" fill="white"/>
</svg>
