<svg width="17" height="17" viewBox="0 0 17 17" fill="none" xmlns="http://www.w3.org/2000/svg">
<path d="M8.49935 1.41666C4.5936 1.41666 1.41602 4.59424 1.41602 8.49999C1.41602 12.4057 4.5936 15.5833 8.49935 15.5833C12.4051 15.5833 15.5827 12.4057 15.5827 8.49999C15.5827 4.59424 12.4051 1.41666 8.49935 1.41666ZM8.49935 14.1667C5.37489 14.1667 2.83268 11.6244 2.83268 8.49999C2.83268 5.37553 5.37489 2.83332 8.49935 2.83332C11.6238 2.83332 14.166 5.37553 14.166 8.49999C14.166 11.6244 11.6238 14.1667 8.49935 14.1667Z" fill="#EED581"/>
<path d="M9.20768 4.95834H7.79102V8.79326L10.1236 11.1258L11.1251 10.1242L9.20768 8.20676V4.95834Z" fill="#EED581"/>
</svg>
