<svg width="212" height="220" viewBox="0 0 212 220" fill="none" xmlns="http://www.w3.org/2000/svg">
<g clip-path="url(#clip0_88_74)">
<path d="M57.3428 218.91V97.4629C57.3428 96.7149 57.6399 95.9975 58.1688 95.4686C58.6977 94.9397 59.4151 94.6426 60.163 94.6426H72.7488C73.4967 94.6426 74.2141 94.9397 74.743 95.4686C75.2719 95.9975 75.569 96.7149 75.569 97.4629V219.227L57.3428 218.91Z" fill="#EED581"/>
<path d="M98.9116 219.291V122.724C98.9116 121.976 99.2088 121.258 99.7377 120.729C100.267 120.2 100.984 119.903 101.732 119.903H114.318C115.066 119.903 115.783 120.2 116.312 120.729C116.841 121.258 117.138 121.976 117.138 122.724V219.083L98.9116 219.291Z" fill="white"/>
<path d="M25.047 104.561C24.8618 104.561 24.6805 104.507 24.5251 104.406C24.3697 104.306 24.2468 104.162 24.1713 103.993C24.0958 103.824 24.0709 103.636 24.0996 103.453C24.1283 103.27 24.2094 103.099 24.3331 102.961L66.4151 56.0238L107.83 79.2797L149.491 7.49463L191.931 42.4267C192.029 42.5067 192.11 42.6051 192.169 42.7164C192.228 42.8276 192.265 42.9494 192.277 43.0748C192.289 43.2003 192.277 43.3269 192.24 43.4475C192.203 43.568 192.143 43.6802 192.063 43.7775C191.983 43.8748 191.885 43.9554 191.773 44.0146C191.662 44.0739 191.54 44.1106 191.415 44.1227C191.289 44.1349 191.163 44.1221 191.042 44.0853C190.922 44.0485 190.809 43.9883 190.712 43.9081L150.016 10.4118L108.54 81.8786L66.8168 58.4498L25.7615 104.242C25.6717 104.343 25.5615 104.423 25.4384 104.478C25.3152 104.533 25.1819 104.561 25.047 104.561Z" fill="white"/>
<path d="M24.8874 112.555C29.8322 112.555 33.8407 108.546 33.8407 103.601C33.8407 98.6567 29.8322 94.6482 24.8874 94.6482C19.9427 94.6482 15.9342 98.6567 15.9342 103.601C15.9342 108.546 19.9427 112.555 24.8874 112.555Z" fill="white"/>
<path d="M66.4562 66.1902C71.4009 66.1902 75.4094 62.1817 75.4094 57.2369C75.4094 52.2922 71.4009 48.2837 66.4562 48.2837C61.5114 48.2837 57.5029 52.2922 57.5029 57.2369C57.5029 62.1817 61.5114 66.1902 66.4562 66.1902Z" fill="#EED581"/>
<path d="M108.025 89.5322C112.969 89.5322 116.978 85.5237 116.978 80.579C116.978 75.6342 112.969 71.6257 108.025 71.6257C103.08 71.6257 99.0714 75.6342 99.0714 80.579C99.0714 85.5237 103.08 89.5322 108.025 89.5322Z" fill="#E6E6E6"/>
<path d="M149.593 17.9065C154.538 17.9065 158.547 13.898 158.547 8.95324C158.547 4.0085 154.538 0 149.593 0C144.649 0 140.64 4.0085 140.64 8.95324C140.64 13.898 144.649 17.9065 149.593 17.9065Z" fill="#EED581"/>
<path d="M182.049 218.86V78.8845C182.049 77.0893 183.312 75.6338 184.869 75.6338H197.455C199.012 75.6338 200.275 77.089 200.275 78.8845V219.227L182.049 218.86Z" fill="white"/>
<path d="M15.774 219.051V151.473C15.774 150.606 17.0368 149.903 18.5943 149.903H31.18C32.7376 149.903 34.0003 150.607 34.0003 151.473V219.227L15.774 219.051Z" fill="white"/>
<path d="M140.48 218.813V59.9661C140.48 57.9289 141.743 56.2773 143.3 56.2773H155.886C157.443 56.2773 158.706 57.9289 158.706 59.9661V219.227L140.48 218.813Z" fill="#EED581"/>
</g>
<defs>
<clipPath id="clip0_88_74">
<rect width="212" height="219.994" fill="white"/>
</clipPath>
</defs>
</svg>
