<svg width="185" height="220" viewBox="0 0 185 220" fill="none" xmlns="http://www.w3.org/2000/svg">
<path d="M41.5687 218.91V97.4629C41.5687 96.7149 41.8659 95.9975 42.3948 95.4686C42.9237 94.9397 43.641 94.6426 44.389 94.6426H56.9747C57.7227 94.6426 58.44 94.9397 58.9689 95.4686C59.4978 95.9975 59.795 96.7149 59.795 97.4629V97.4629V219.227L41.5687 218.91Z" fill="#EED581"/>
<path d="M83.1375 219.291V122.724C83.1375 121.976 83.4347 121.258 83.9636 120.729C84.4925 120.2 85.2098 119.903 85.9578 119.903H98.5435C99.2915 119.903 100.009 120.2 100.538 120.729C101.067 121.258 101.364 121.976 101.364 122.724V122.724V219.083L83.1375 219.291Z" fill="white"/>
<path d="M9.27291 104.561C9.08766 104.561 8.90638 104.507 8.75098 104.406C8.59558 104.306 8.4727 104.162 8.39719 103.993C8.32169 103.824 8.29678 103.636 8.32549 103.453C8.3542 103.27 8.43528 103.099 8.55896 102.961L50.6409 56.0238L92.0555 79.2797L133.717 7.49463L176.157 42.4267C176.255 42.5067 176.335 42.6051 176.395 42.7164C176.454 42.8276 176.491 42.9494 176.503 43.0748C176.515 43.2003 176.503 43.3269 176.466 43.4475C176.429 43.568 176.369 43.6802 176.289 43.7775C176.209 43.8748 176.11 43.9554 175.999 44.0146C175.888 44.0739 175.766 44.1106 175.641 44.1227C175.515 44.1349 175.389 44.1221 175.268 44.0853C175.147 44.0485 175.035 43.9883 174.938 43.9081L134.242 10.4118L92.7655 81.8786L51.0427 58.4498L9.98744 104.242C9.89755 104.343 9.78743 104.423 9.66428 104.478C9.54114 104.533 9.40777 104.561 9.27291 104.561V104.561Z" fill="white"/>
<path d="M9.11334 112.555C14.0581 112.555 18.0666 108.546 18.0666 103.601C18.0666 98.6567 14.0581 94.6482 9.11334 94.6482C4.1686 94.6482 0.160095 98.6567 0.160095 103.601C0.160095 108.546 4.1686 112.555 9.11334 112.555Z" fill="white"/>
<path d="M50.6821 66.1902C55.6268 66.1902 59.6353 62.1817 59.6353 57.2369C59.6353 52.2922 55.6268 48.2837 50.6821 48.2837C45.7373 48.2837 41.7288 52.2922 41.7288 57.2369C41.7288 62.1817 45.7373 66.1902 50.6821 66.1902Z" fill="#EED581"/>
<path d="M92.2505 89.5322C97.1953 89.5322 101.204 85.5237 101.204 80.579C101.204 75.6342 97.1953 71.6257 92.2505 71.6257C87.3058 71.6257 83.2973 75.6342 83.2973 80.579C83.2973 85.5237 87.3058 89.5322 92.2505 89.5322Z" fill="#E6E6E6"/>
<path d="M133.819 17.9065C138.764 17.9065 142.772 13.898 142.772 8.95324C142.772 4.0085 138.764 0 133.819 0C128.874 0 124.866 4.0085 124.866 8.95324C124.866 13.898 128.874 17.9065 133.819 17.9065Z" fill="#EED581"/>
<path d="M166.275 218.86V78.8845C166.275 77.0893 167.538 75.6338 169.095 75.6338H181.681C183.238 75.6338 184.501 77.089 184.501 78.8845V219.227L166.275 218.86Z" fill="white"/>
<path d="M0 219.051V151.473C0 150.606 1.26273 149.903 2.82027 149.903H15.406C16.9635 149.903 18.2262 150.607 18.2262 151.473V219.227L0 219.051Z" fill="white"/>
<path d="M124.706 218.813V59.9661C124.706 57.9289 125.969 56.2773 127.526 56.2773H140.112C141.669 56.2773 142.932 57.9289 142.932 59.9661V219.227L124.706 218.813Z" fill="#EED581"/>
</svg>
