<svg width="16" height="31" viewBox="0 0 16 31" fill="none" xmlns="http://www.w3.org/2000/svg">
<g clip-path="url(#clip0_471_557)">
<path d="M15.9046 9.18276L7.95119 4.59141L0 9.18276V4.59141L7.95231 -7.62939e-06L15.9057 4.59141V9.18276H15.9046Z" fill="#A435F0"/>
<path d="M0 13.0384H4.16575V23.1596C4.16575 25.7745 6.11849 27.0491 7.95231 27.0491C9.80198 27.0491 11.74 25.7406 11.74 23.1245V13.0384H15.9057V23.4007C15.9057 25.8096 15.1484 27.6684 13.6338 28.943C12.1181 30.2165 10.2253 30.8368 7.91721 30.8368C5.61131 30.8368 3.71747 30.2176 2.23799 28.9431C0.757325 27.6694 0 25.8798 0 23.5037V13.0384Z" fill="white"/>
</g>
<defs>
<clipPath id="clip0_471_557">
<rect width="15.9057" height="30.8795" fill="white"/>
</clipPath>
</defs>
</svg>
