<svg width="26" height="27" viewBox="0 0 26 27" fill="none" xmlns="http://www.w3.org/2000/svg">
<g clip-path="url(#clip0_471_551)">
<path d="M12.82 14.5468C11.8259 16.597 10.4676 19.3726 9.79635 20.6235C9.14183 21.7624 8.59944 21.6097 8.1684 20.6522C6.68121 17.1314 3.61617 10.9552 2.17909 7.49654C1.91426 6.85872 1.71066 6.44835 1.52059 6.2869C1.32972 6.12944 0.936848 6.034 0.331635 6.0014C0.108159 5.97277 0 5.91869 0 5.8312V5.34687L0.0540795 5.30154C1.03546 5.29757 5.78253 5.30154 5.78253 5.30154L5.83661 5.34687V5.81053C5.83661 5.93459 5.75788 5.99662 5.59644 5.99662L4.99997 6.03003C4.48622 6.05866 4.22934 6.20022 4.22934 6.4897C4.22934 6.63445 4.28342 6.84202 4.40351 7.12752C5.5511 9.93171 9.51482 18.2822 9.51482 18.2822L9.65956 18.3323L12.2156 13.2337L11.7019 12.1028L9.94586 8.64016C9.94586 8.64016 9.61025 7.94826 9.49016 7.71683C8.71953 6.18431 8.73623 6.10558 7.95764 6.00219C7.73814 5.97754 7.62601 5.94811 7.62601 5.84472V5.34767L7.68804 5.29757H12.2403L12.3604 5.33892V5.8153C12.3604 5.92743 12.2776 5.97674 12.1202 5.97674L11.7933 6.02685C10.9527 6.08888 11.0935 6.42847 11.6486 7.53471L13.3258 10.9807L15.19 7.26511C15.5009 6.58593 15.4389 6.41574 15.3101 6.26305C15.2353 6.17159 14.9872 6.03082 14.4488 6.00617L14.2333 5.98549C14.1775 5.98523 14.1234 5.96618 14.0798 5.93141C14.058 5.91587 14.0402 5.89536 14.0278 5.87157C14.0155 5.84778 14.0091 5.82141 14.009 5.79462V5.3429L14.075 5.2928C15.396 5.28484 18.3624 5.2928 18.3624 5.2928L18.4244 5.3429V5.80257C18.4244 5.93062 18.3624 5.99344 18.2176 5.99344C17.5345 6.02207 17.389 6.09285 17.1321 6.4571C17.008 6.65592 16.7344 7.08219 16.4489 7.55857L14.009 12.0901L13.9382 12.2349L16.8999 18.291L17.082 18.3411L21.7416 7.27306C21.903 6.82531 21.8783 6.5064 21.6756 6.32428C21.464 6.14216 21.3065 6.034 20.7642 6.00935L20.3212 5.99265C20.2639 5.99525 20.2073 5.97936 20.1597 5.94732C20.1144 5.91391 20.081 5.86858 20.081 5.81928V5.3596L20.143 5.3095H25.4078L25.4492 5.3596V5.82325C25.4492 5.94732 25.3705 6.01412 25.2257 6.01412C24.5426 6.04275 24.0328 6.20499 23.6972 6.4571C23.3655 6.73067 23.1047 7.11162 22.9186 7.59197C22.9186 7.59197 18.6312 17.409 17.1655 20.6729C16.6064 21.7417 16.0473 21.6463 15.5709 20.6395C14.9665 19.4012 13.6901 16.6256 12.7628 14.5881L12.82 14.5468Z" fill="white"/>
</g>
<defs>
<clipPath id="clip0_471_551">
<rect width="25.4492" height="25.4492" fill="white" transform="translate(0 0.637177)"/>
</clipPath>
</defs>
</svg>
