<svg width="236" height="219" viewBox="0 0 236 219" fill="none" xmlns="http://www.w3.org/2000/svg">
<path d="M90.3618 130.166V211.6H147.411V130.166C147.412 129.58 147.225 129.01 146.878 128.538C146.531 128.067 146.042 127.719 145.482 127.546C145.218 127.459 144.942 127.416 144.664 127.419H93.117C92.7556 127.418 92.3977 127.489 92.0636 127.626C91.7296 127.764 91.4259 127.966 91.17 128.221C90.9141 128.477 90.711 128.78 90.5724 129.113C90.4337 129.447 90.3622 129.805 90.3618 130.166V130.166ZM112.626 158.147C112.64 156.541 113.289 155.007 114.429 153.877C115.57 152.746 117.11 152.112 118.716 152.112C120.321 152.112 121.862 152.746 123.003 153.877C124.143 155.007 124.791 156.541 124.806 158.147V167.596C124.798 169.206 124.153 170.747 123.012 171.883C121.871 173.019 120.326 173.657 118.716 173.657C117.106 173.657 115.561 173.019 114.42 171.883C113.279 170.747 112.633 169.206 112.626 167.596V158.147Z" fill="#EED581"/>
<path d="M90.1871 208.995V216.848C90.1884 217.255 90.35 217.645 90.6369 217.933C90.9238 218.221 91.3128 218.385 91.7195 218.389H146.054C146.461 218.387 146.851 218.223 147.138 217.935C147.425 217.646 147.586 217.255 147.586 216.848V208.995H90.1871Z" fill="#3F3D56"/>
<path d="M0.61499 7.47586V156.162C0.616492 158.057 1.36986 159.874 2.70969 161.213C4.04952 162.553 5.86629 163.307 7.76109 163.308H228.099C229.994 163.307 231.81 162.553 233.15 161.213C234.49 159.874 235.243 158.057 235.245 156.162V7.47586C235.24 5.5827 234.486 3.76849 233.146 2.43056C231.807 1.09264 229.992 0.340049 228.099 0.337646H7.76109C5.86794 0.340054 4.05289 1.09264 2.71348 2.43056C1.37407 3.76849 0.619498 5.5827 0.61499 7.47586V7.47586Z" fill="#EED581"/>
<path d="M5.78394 9.32542V154.328C5.78569 155.34 6.1886 156.31 6.90446 157.026C7.62031 157.742 8.59072 158.145 9.60309 158.147H226.265C227.277 158.145 228.247 157.742 228.963 157.026C229.679 156.31 230.082 155.34 230.084 154.328V9.32542C230.084 8.31181 229.682 7.33963 228.966 6.62215C228.25 5.90467 227.278 5.50049 226.265 5.49829H9.60309C8.58948 5.5005 7.61818 5.90467 6.90219 6.62215C6.18621 7.33963 5.78404 8.31181 5.78394 9.32542Z" fill="white"/>
<path d="M50.6266 217.856C50.8471 218.133 51.1274 218.356 51.4464 218.508C51.7655 218.661 52.1149 218.739 52.4686 218.738H181.368C181.721 218.737 182.069 218.658 182.387 218.506C182.705 218.355 182.985 218.134 183.207 217.86C183.429 217.586 183.588 217.266 183.671 216.924C183.754 216.581 183.759 216.224 183.687 215.879L181.686 206.375C181.603 205.987 181.424 205.627 181.166 205.326C180.908 205.025 180.579 204.793 180.209 204.652C179.941 204.547 179.655 204.493 179.367 204.493H54.4616C54.1736 204.493 53.8881 204.547 53.62 204.652C53.2496 204.793 52.9205 205.025 52.6625 205.326C52.4046 205.627 52.226 205.987 52.1431 206.375L50.1422 215.879C50.071 216.224 50.0776 216.58 50.1613 216.922C50.2451 217.264 50.404 217.583 50.6266 217.856V217.856Z" fill="#F2F2F2"/>
<path d="M219.233 25.4732H16.5038C16.293 25.4686 16.0925 25.3816 15.945 25.2309C15.7976 25.0803 15.7151 24.8778 15.7151 24.667C15.7151 24.4562 15.7976 24.2538 15.945 24.1031C16.0925 23.9524 16.293 23.8655 16.5038 23.8608H219.233C219.444 23.8655 219.644 23.9524 219.792 24.1031C219.939 24.2538 220.022 24.4562 220.022 24.667C220.022 24.8778 219.939 25.0803 219.792 25.2309C219.644 25.3816 219.444 25.4686 219.233 25.4732V25.4732Z" fill="#3F3D56"/>
<path d="M30.3039 19.7445C32.9133 19.7445 35.0286 17.582 35.0286 14.9145C35.0286 12.2469 32.9133 10.0845 30.3039 10.0845C27.6946 10.0845 25.5792 12.2469 25.5792 14.9145C25.5792 17.582 27.6946 19.7445 30.3039 19.7445Z" fill="#3F3D56"/>
<path d="M46.6256 19.7445C49.2349 19.7445 51.3503 17.582 51.3503 14.9145C51.3503 12.2469 49.2349 10.0845 46.6256 10.0845C44.0162 10.0845 41.9009 12.2469 41.9009 14.9145C41.9009 17.582 44.0162 19.7445 46.6256 19.7445Z" fill="#3F3D56"/>
<path d="M62.9473 19.7445C65.5567 19.7445 67.6721 17.582 67.6721 14.9145C67.6721 12.2469 65.5567 10.0845 62.9473 10.0845C60.338 10.0845 58.2227 12.2469 58.2227 14.9145C58.2227 17.582 60.338 19.7445 62.9473 19.7445Z" fill="#3F3D56"/>
<path d="M141.657 69.3022H107.436C105.766 69.3022 104.411 70.6568 104.411 72.3276V74.8885C104.411 76.5594 105.766 77.9139 107.436 77.9139H141.657C143.328 77.9139 144.683 76.5594 144.683 74.8885V72.3276C144.683 70.6568 143.328 69.3022 141.657 69.3022Z" fill="#EED581"/>
<path d="M162.11 86.5251H86.9843C85.3135 86.5251 83.959 87.8797 83.959 89.5505V92.1114C83.959 93.7823 85.3135 95.1367 86.9843 95.1367H162.11C163.781 95.1367 165.136 93.7823 165.136 92.1114V89.5505C165.136 87.8797 163.781 86.5251 162.11 86.5251Z" fill="#EED581"/>
<path d="M162.11 103.748H86.9843C85.3135 103.748 83.959 105.103 83.959 106.774V109.335C83.959 111.005 85.3135 112.36 86.9843 112.36H162.11C163.781 112.36 165.136 111.005 165.136 109.335V106.774C165.136 105.103 163.781 103.748 162.11 103.748Z" fill="#EED581"/>
</svg>
