<svg width="334" height="304" viewBox="0 0 334 304" fill="none" xmlns="http://www.w3.org/2000/svg">
<path d="M139.362 176.166V257.6H196.411V176.166C196.412 175.58 196.225 175.01 195.878 174.538C195.531 174.067 195.042 173.719 194.482 173.546C194.218 173.459 193.942 173.416 193.664 173.419H142.117C141.756 173.418 141.398 173.489 141.064 173.626C140.73 173.764 140.426 173.966 140.17 174.221C139.914 174.477 139.711 174.78 139.572 175.113C139.434 175.447 139.362 175.805 139.362 176.166ZM161.626 204.147C161.64 202.541 162.289 201.007 163.429 199.877C164.57 198.746 166.11 198.112 167.716 198.112C169.321 198.112 170.862 198.746 172.003 199.877C173.143 201.007 173.791 202.541 173.806 204.147V213.596C173.798 215.206 173.153 216.747 172.012 217.883C170.871 219.019 169.326 219.657 167.716 219.657C166.106 219.657 164.561 219.019 163.42 217.883C162.279 216.747 161.633 215.206 161.626 213.596V204.147Z" fill="#EED581"/>
<path d="M139.187 254.995V262.848C139.188 263.255 139.35 263.645 139.637 263.933C139.924 264.221 140.313 264.385 140.72 264.389H195.054C195.461 264.387 195.851 264.223 196.138 263.935C196.425 263.646 196.586 263.255 196.586 262.848V254.995H139.187Z" fill="#3F3D56"/>
<path d="M49.615 53.4759V202.162C49.6165 204.057 50.3699 205.874 51.7097 207.213C53.0495 208.553 54.8663 209.307 56.7611 209.308H277.099C278.994 209.307 280.81 208.553 282.15 207.213C283.49 205.874 284.243 204.057 284.245 202.162V53.4759C284.24 51.5827 283.486 49.7685 282.146 48.4306C280.807 47.0926 278.992 46.34 277.099 46.3376H56.7611C54.8679 46.3401 53.0529 47.0926 51.7135 48.4306C50.3741 49.7685 49.6195 51.5827 49.615 53.4759Z" fill="#EED581"/>
<path d="M54.7839 55.3255V200.328C54.7857 201.34 55.1886 202.31 55.9045 203.026C56.6203 203.742 57.5907 204.145 58.6031 204.147H275.265C276.277 204.145 277.247 203.742 277.963 203.026C278.679 202.31 279.082 201.34 279.084 200.328V55.3255C279.084 54.3119 278.682 53.3398 277.966 52.6223C277.25 51.9048 276.278 51.5006 275.265 51.4984H58.6031C57.5895 51.5006 56.6182 51.9048 55.9022 52.6223C55.1862 53.3398 54.784 54.3119 54.7839 55.3255Z" fill="white"/>
<path d="M99.6266 263.856C99.8471 264.133 100.127 264.356 100.446 264.508C100.765 264.661 101.115 264.739 101.469 264.738H230.368C230.721 264.737 231.069 264.658 231.387 264.506C231.705 264.355 231.985 264.134 232.207 263.86C232.429 263.586 232.588 263.266 232.671 262.924C232.754 262.581 232.759 262.224 232.687 261.879L230.686 252.375C230.603 251.987 230.424 251.627 230.166 251.326C229.908 251.025 229.579 250.793 229.209 250.652C228.941 250.547 228.655 250.493 228.367 250.493H103.462C103.174 250.493 102.888 250.547 102.62 250.652C102.25 250.793 101.92 251.025 101.663 251.326C101.405 251.627 101.226 251.987 101.143 252.375L99.1422 261.879C99.071 262.224 99.0776 262.58 99.1613 262.922C99.2451 263.264 99.404 263.583 99.6266 263.856Z" fill="#F2F2F2"/>
<path d="M268.233 71.4734H65.5038C65.293 71.4687 65.0925 71.3818 64.945 71.2311C64.7976 71.0804 64.7151 70.878 64.7151 70.6672C64.7151 70.4564 64.7976 70.2539 64.945 70.1032C65.0925 69.9526 65.293 69.8656 65.5038 69.861H268.233C268.444 69.8656 268.644 69.9526 268.792 70.1032C268.939 70.2539 269.022 70.4564 269.022 70.6672C269.022 70.878 268.939 71.0804 268.792 71.2311C268.644 71.3818 268.444 71.4687 268.233 71.4734Z" fill="#3F3D56"/>
<path d="M79.3039 65.7445C81.9133 65.7445 84.0286 63.582 84.0286 60.9145C84.0286 58.2469 81.9133 56.0845 79.3039 56.0845C76.6946 56.0845 74.5792 58.2469 74.5792 60.9145C74.5792 63.582 76.6946 65.7445 79.3039 65.7445Z" fill="#3F3D56"/>
<path d="M95.6256 65.7445C98.2349 65.7445 100.35 63.582 100.35 60.9145C100.35 58.2469 98.2349 56.0845 95.6256 56.0845C93.0162 56.0845 90.9009 58.2469 90.9009 60.9145C90.9009 63.582 93.0162 65.7445 95.6256 65.7445Z" fill="#3F3D56"/>
<path d="M111.947 65.7445C114.557 65.7445 116.672 63.582 116.672 60.9145C116.672 58.2469 114.557 56.0845 111.947 56.0845C109.338 56.0845 107.223 58.2469 107.223 60.9145C107.223 63.582 109.338 65.7445 111.947 65.7445Z" fill="#3F3D56"/>
<path d="M258.405 57.2787H246.812C246.583 57.2839 246.365 57.3786 246.205 57.5426C246.044 57.7066 245.955 57.9268 245.955 58.1561C245.955 58.3854 246.044 58.6056 246.205 58.7695C246.365 58.9335 246.583 59.0282 246.812 59.0335H258.405C258.636 59.0304 258.856 58.9366 259.018 58.7724C259.18 58.6082 259.271 58.3868 259.271 58.1561C259.271 57.9254 259.18 57.704 259.018 57.5398C258.856 57.3756 258.636 57.2818 258.405 57.2787Z" fill="#3F3D56"/>
<path d="M258.405 60.574H246.812C246.583 60.5792 246.365 60.674 246.205 60.838C246.044 61.0019 245.955 61.2221 245.955 61.4513C245.955 61.6806 246.044 61.9007 246.205 62.0647C246.365 62.2287 246.583 62.3234 246.812 62.3287H258.405C258.635 62.3255 258.855 62.2317 259.017 62.0675C259.179 61.9033 259.27 61.682 259.27 61.4513C259.27 61.2207 259.179 60.9994 259.017 60.8352C258.855 60.671 258.635 60.5772 258.405 60.574Z" fill="#3F3D56"/>
<path d="M258.405 63.8693H246.812C246.583 63.8745 246.365 63.9692 246.205 64.1332C246.044 64.2971 245.955 64.5173 245.955 64.7467C245.955 64.976 246.044 65.1961 246.205 65.3601C246.365 65.5241 246.583 65.6188 246.812 65.624H258.405C258.636 65.6209 258.856 65.5271 259.018 65.3629C259.18 65.1987 259.271 64.9773 259.271 64.7467C259.271 64.516 259.18 64.2946 259.018 64.1304C258.856 63.9662 258.636 63.8724 258.405 63.8693Z" fill="#3F3D56"/>
<path d="M190.657 115.302H156.436C154.766 115.302 153.411 116.657 153.411 118.327V120.888C153.411 122.559 154.766 123.914 156.436 123.914H190.657C192.328 123.914 193.683 122.559 193.683 120.888V118.327C193.683 116.657 192.328 115.302 190.657 115.302Z" fill="#EED581"/>
<path d="M211.11 132.525H135.984C134.313 132.525 132.959 133.88 132.959 135.55V138.111C132.959 139.782 134.313 141.137 135.984 141.137H211.11C212.781 141.137 214.136 139.782 214.136 138.111V135.55C214.136 133.88 212.781 132.525 211.11 132.525Z" fill="#EED581"/>
<path d="M211.11 149.748H135.984C134.313 149.748 132.959 151.103 132.959 152.774V155.335C132.959 157.005 134.313 158.36 135.984 158.36H211.11C212.781 158.36 214.136 157.005 214.136 155.335V152.774C214.136 151.103 212.781 149.748 211.11 149.748Z" fill="#EED581"/>
</svg>
