<svg width="32" height="23" viewBox="0 0 32 23" fill="none" xmlns="http://www.w3.org/2000/svg">
<g clip-path="url(#clip0_471_544)">
<path d="M30.9707 3.70096C30.789 3.02964 30.4347 2.41763 29.9429 1.92586C29.4512 1.43408 28.8392 1.07971 28.1679 0.898028C25.7102 0.22776 15.819 0.22776 15.819 0.22776C15.819 0.22776 5.92728 0.248049 3.46963 0.918317C2.79831 1.10001 2.1863 1.4544 1.69455 1.9462C1.2028 2.43799 0.848463 3.05003 0.666828 3.72137C-0.0765535 8.08813 -0.364925 14.7421 0.68724 18.9342C0.868895 19.6055 1.22324 20.2175 1.71499 20.7093C2.20674 21.201 2.81874 21.5554 3.49004 21.7371C5.94769 22.4073 15.8392 22.4073 15.8392 22.4073C15.8392 22.4073 25.7305 22.4073 28.188 21.7371C28.8594 21.5554 29.4714 21.2011 29.9632 20.7093C30.4549 20.2175 30.8093 19.6055 30.991 18.9342C31.775 14.5612 32.0166 7.91147 30.9707 3.70108V3.70096Z" fill="#FF0000"/>
<path d="M12.6699 16.0702L20.8754 11.3175L12.6699 6.56474V16.0702Z" fill="white"/>
</g>
<defs>
<clipPath id="clip0_471_544">
<rect width="31.6701" height="22.268" fill="white" transform="translate(0 0.22776)"/>
</clipPath>
</defs>
</svg>
